<mxfile host="app.diagrams.net" modified="2021-03-01T15:14:50.879Z" agent="5.0 (X11)" etag="lZzKC1Fr0L_QiHMUAAxS" version="14.4.3" type="github">
  <diagram id="k8PTkc1Zzn6vZ5VbIvwg" name="Page-1">
    <mxGraphModel dx="4215" dy="3039" grid="1" gridSize="10" guides="1" tooltips="1" connect="1" arrows="1" fold="1" page="1" pageScale="1" pageWidth="827" pageHeight="1169" math="0" shadow="0">
      <root>
        <mxCell id="0" />
        <mxCell id="1" parent="0" />
        <mxCell id="HfbvIJwxYoeoFV3w_FML-7" value="" style="shape=hexagon;perimeter=hexagonPerimeter2;whiteSpace=wrap;html=1;fixedSize=1;" parent="1" vertex="1">
          <mxGeometry x="-800" y="-1110" width="930" height="580" as="geometry" />
        </mxCell>
        <mxCell id="sxLbU0wNFSw0PBxlbZjx-129" value="" style="edgeStyle=orthogonalEdgeStyle;rounded=0;orthogonalLoop=1;jettySize=auto;html=1;startArrow=async;startFill=1;strokeColor=#FAFAFA;opacity=20;" parent="1" edge="1">
          <mxGeometry relative="1" as="geometry">
            <mxPoint x="-218" y="1001.63" as="targetPoint" />
            <mxPoint x="700.5200000000004" y="520" as="sourcePoint" />
          </mxGeometry>
        </mxCell>
        <mxCell id="sxLbU0wNFSw0PBxlbZjx-11" value="" style="endArrow=open;endFill=1;endSize=12;html=1;strokeWidth=3;" parent="1" edge="1">
          <mxGeometry width="160" relative="1" as="geometry">
            <mxPoint x="125.88" y="-835" as="sourcePoint" />
            <mxPoint x="299.88" y="-835" as="targetPoint" />
          </mxGeometry>
        </mxCell>
        <mxCell id="sxLbU0wNFSw0PBxlbZjx-13" value="2" style="ellipse;fillColor=#ffffff;strokeColor=#000000;fontSize=18;" parent="1" vertex="1">
          <mxGeometry x="149.88" y="-865" width="20" height="25" as="geometry" />
        </mxCell>
        <mxCell id="sxLbU0wNFSw0PBxlbZjx-14" value="&lt;b&gt;&lt;font style=&quot;font-size: 15px&quot;&gt;Self-Adaptive System&lt;br&gt;&lt;/font&gt;&lt;/b&gt;" style="shape=cube;whiteSpace=wrap;html=1;boundedLbl=1;backgroundOutline=1;darkOpacity=0.05;darkOpacity2=0.1;" parent="1" vertex="1">
          <mxGeometry x="299.88" y="-900" width="130" height="110" as="geometry" />
        </mxCell>
        <mxCell id="sxLbU0wNFSw0PBxlbZjx-18" value="&lt;b&gt;&lt;font style=&quot;font-size: 15px&quot;&gt;Traces&lt;/font&gt;&lt;/b&gt;" style="shape=cylinder3;whiteSpace=wrap;html=1;boundedLbl=1;backgroundOutline=1;size=15;" parent="1" vertex="1">
          <mxGeometry x="579.88" y="-875" width="60" height="80" as="geometry" />
        </mxCell>
        <mxCell id="sxLbU0wNFSw0PBxlbZjx-19" value="" style="endArrow=open;endFill=1;endSize=12;html=1;strokeWidth=3;exitX=0;exitY=0;exitDx=130;exitDy=65;exitPerimeter=0;entryX=0;entryY=0.5;entryDx=0;entryDy=0;entryPerimeter=0;" parent="1" source="sxLbU0wNFSw0PBxlbZjx-14" target="sxLbU0wNFSw0PBxlbZjx-18" edge="1">
          <mxGeometry width="160" relative="1" as="geometry">
            <mxPoint x="439.88" y="-834.25" as="sourcePoint" />
            <mxPoint x="559.88" y="-834.25" as="targetPoint" />
          </mxGeometry>
        </mxCell>
        <mxCell id="sxLbU0wNFSw0PBxlbZjx-20" value="p2.merged(p1)" style="text;html=1;align=center;verticalAlign=middle;resizable=0;points=[];autosize=1;" parent="1" vertex="1">
          <mxGeometry x="465.93" y="-864.25" width="90" height="20" as="geometry" />
        </mxCell>
        <mxCell id="sxLbU0wNFSw0PBxlbZjx-21" value="3" style="ellipse;fillColor=#ffffff;strokeColor=#000000;fontSize=18;" parent="1" vertex="1">
          <mxGeometry x="439.88" y="-866.75" width="20" height="25" as="geometry" />
        </mxCell>
        <mxCell id="sxLbU0wNFSw0PBxlbZjx-23" value="&lt;div&gt;\&lt;/div&gt;" style="text;html=1;align=center;verticalAlign=middle;resizable=0;points=[];autosize=1;" parent="1" vertex="1">
          <mxGeometry x="-485" y="-808.37" width="20" height="20" as="geometry" />
        </mxCell>
        <mxCell id="sxLbU0wNFSw0PBxlbZjx-37" value="" style="endArrow=open;endFill=1;endSize=12;html=1;strokeWidth=3;exitX=0;exitY=1;exitDx=0;exitDy=-15;exitPerimeter=0;entryX=0.89;entryY=0.888;entryDx=0;entryDy=0;entryPerimeter=0;" parent="1" source="sxLbU0wNFSw0PBxlbZjx-18" edge="1">
          <mxGeometry width="160" relative="1" as="geometry">
            <mxPoint x="471.92999999999995" y="-745" as="sourcePoint" />
            <mxPoint x="128.88" y="-803.9599999999999" as="targetPoint" />
            <Array as="points">
              <mxPoint x="469.88" y="-765" />
              <mxPoint x="229.88" y="-765" />
            </Array>
          </mxGeometry>
        </mxCell>
        <mxCell id="sxLbU0wNFSw0PBxlbZjx-38" value="&lt;font style=&quot;font-size: 14px&quot;&gt;Retrieve&lt;/font&gt;" style="text;html=1;align=center;verticalAlign=middle;resizable=0;points=[];autosize=1;" parent="1" vertex="1">
          <mxGeometry x="324.88" y="-755" width="70" height="20" as="geometry" />
        </mxCell>
        <mxCell id="sxLbU0wNFSw0PBxlbZjx-39" value="4" style="ellipse;fillColor=#ffffff;strokeColor=#000000;fontSize=18;" parent="1" vertex="1">
          <mxGeometry x="299.88" y="-757.5" width="20" height="25" as="geometry" />
        </mxCell>
        <mxCell id="HfbvIJwxYoeoFV3w_FML-22" value="&lt;b&gt;&lt;font style=&quot;font-size: 17px&quot;&gt;Test Generator&lt;/font&gt;&lt;/b&gt;" style="text;html=1;align=center;verticalAlign=middle;resizable=0;points=[];autosize=1;" parent="1" vertex="1">
          <mxGeometry x="-390.00000000000006" y="-1100" width="140" height="20" as="geometry" />
        </mxCell>
        <mxCell id="HfbvIJwxYoeoFV3w_FML-35" value="1" style="ellipse;fillColor=#ffffff;strokeColor=#000000;fontSize=18;" parent="1" vertex="1">
          <mxGeometry x="-789.9999999999999" y="-712.5" width="20" height="25" as="geometry" />
        </mxCell>
        <mxCell id="HfbvIJwxYoeoFV3w_FML-39" value="&lt;font style=&quot;font-size: 14px&quot;&gt;pick() and send() : &lt;/font&gt;&lt;font style=&quot;font-size: 14px&quot;&gt;Î´&lt;/font&gt;" style="text;html=1;align=center;verticalAlign=middle;resizable=0;points=[];autosize=1;" parent="1" vertex="1">
          <mxGeometry x="163.88" y="-864.25" width="140" height="20" as="geometry" />
        </mxCell>
        <mxCell id="HfbvIJwxYoeoFV3w_FML-47" value="&lt;font style=&quot;font-size: 14px&quot;&gt;state &lt;font style=&quot;font-size: 14px&quot;&gt;update(p2)&lt;/font&gt;&lt;/font&gt;" style="text;html=1;align=center;verticalAlign=middle;resizable=0;points=[];autosize=1;" parent="1" vertex="1">
          <mxGeometry x="29.879999999999995" y="-1045" width="120" height="20" as="geometry" />
        </mxCell>
        <mxCell id="HfbvIJwxYoeoFV3w_FML-48" value="5" style="ellipse;fillColor=#ffffff;strokeColor=#000000;fontSize=18;" parent="1" vertex="1">
          <mxGeometry x="16.069999999999936" y="-1047.5" width="20" height="25" as="geometry" />
        </mxCell>
        <mxCell id="c7oaYpLgM0GibOYgqj4v-2" value="" style="shape=image;verticalLabelPosition=bottom;labelBackgroundColor=#ffffff;verticalAlign=top;aspect=fixed;imageAspect=0;image=data:image/png,iVBORw0KGgoAAAANSUhEUgAABGwAAANnCAMAAABTTj4jAAADAFBMVEUAAAAAADMAAGYAAJkAAMwAAP8AMwAAMzMAM2YAM5kAM8wAM/8AZgAAZjMAZmYAZpkAZswAZv8AmQAAmTMAmWYAmZkAmcwAmf8AzAAAzDMAzGYAzJkAzMwAzP8A/wAA/zMA/2YA/5kA/8wA//8zAAAzADMzAGYzAJkzAMwzAP8zMwAzMzMzM2YzM5kzM8wzM/8zZgAzZjMzZmYzZpkzZswzZv8zmQAzmTMzmWYzmZkzmcwzmf8zzAAzzDMzzGYzzJkzzMwzzP8z/wAz/zMz/2Yz/5kz/8wz//9mAABmADNmAGZmAJlmAMxmAP9mMwBmMzNmM2ZmM5lmM8xmM/9mZgBmZjNmZmZmZplmZsxmZv9mmQBmmTNmmWZmmZlmmcxmmf9mzABmzDNmzGZmzJlmzMxmzP9m/wBm/zNm/2Zm/5lm/8xm//+ZAACZADOZAGaZAJmZAMyZAP+ZMwCZMzOZM2aZM5mZM8yZM/+ZZgCZZjOZZmaZZpmZZsyZZv+ZmQCZmTOZmWaZmZmZmcyZmf+ZzACZzDOZzGaZzJmZzMyZzP+Z/wCZ/zOZ/2aZ/5mZ/8yZ///MAADMADPMAGbMAJnMAMzMAP/MMwDMMzPMM2bMM5nMM8zMM//MZgDMZjPMZmbMZpnMZszMZv/MmQDMmTPMmWbMmZnMmczMmf/MzADMzDPMzGbMzJnMzMzMzP/M/wDM/zPM/2bM/5nM/8zM////AAD/ADP/AGb/AJn/AMz/AP//MwD/MzP/M2b/M5n/M8z/M///ZgD/ZjP/Zmb/Zpn/Zsz/Zv//mQD/mTP/mWb/mZn/mcz/mf//zAD/zDP/zGb/zJn/zMz/zP///wD//zP//2b//5n//8z///8AAABFRUVBQUFOTk4mJiY3NzcODg5ISEgCAgJAQEBEREQtLS0kJCRdXV0eHh5cXFxQUFA4ODhRUVEEBARhYWEuLi40NDQFBQVGRkZaWlowMDA/Pz9VVVUqKio6OjovLy85OTkaGhozMzMdHR02NjY9PT1NTU1eXl7uI/vgAAAA2XRSTlP///////////////////////////////////////////////////////////////////////////////////////////////////////////////////////////////////////////////////////////////////////////////////////////////////////////////////////////////////////////////////////////////////////////////////////////////8A9EGGvAAAAAlwSFlzAAAOxAAADsQBlSsOGwAAIABJREFUeJzsvc3x/KgONurNvau7egM4CXhx6o1hcqDqZDBpULOeTDSbScbp3AYkvgwYbLBNt56a+f+6/YExbT2WhJCWjcFgMG7A8nQHGAzGb4DJhsFg3AImGwaDcQuYbBgMxi1gsmEwGLeAyYbBYNwCJhsGg3ELmGwYDMYtmJVsADZ4ug8MBqMB85ANKHhfNmC2YTAmwhvJ5sMkEjakF0MrHwi9Fb9K+dktmW0YjHnwRrKR8sMsm2YT9R9o8pFCbf+wzOej1GSzCSabNFjtY7wRLyQbRTBENqjBqE+wGZ4xOo4im9/UbKwxCfj/Rrqf+f75K80fBuNVeCfZfLhECdBHjZH43VhR6r8NhFJ+th/VbLRupz5IVPmM3mfGDIzupw7QI8RgvAg7sgHvLzzyetTqy4YmlCTxQbJRbhtNQOb/3wOqe5vHL+oT8YweMMFkw3ghLNkAvSn1e9M8yFLIB/hG1phHP+uWILLZpADUYBTNKOqVSDJINj85PIwXw5KNmemRwigNQr0e9fPaRX9QvGAcC+YbOGtgjzopeUbreh5GjUEj06h+AshrDmaKjs0oxhtBZINaudZnwJDN5ykW0MUNi1PY0qhNYLR+rTYlj758PXdd9+caOdmWLFta6rwZetQoKMCwC5KP+eWMXsoOYsZAyMQnB20RpXYvtN94Y4XEd6NUOrlW2Du8IvVUEjp4jeKP7+BBqj44edwwbEfd3nkBTLPlQBsz2zBUecUfIkLGlwLEuiwrEQHYT3Jdds8ZrOtHPhaBB/i7kGw0ATjNRinpApAlLpONkdKNpqyVs6HWx4tssZFSUSdDEmjqypCaDtPBiMBzd5BgS9lLf3DUiN9A/xYZtY+toymgBKjzT3XhZXkRml1gXSR+I7Xlw0B7sjGb5LLiMf4uPE/ihLOWI6QZ8/xf1j5IayKy0RYU+nEO3tM2eMRt2I4lfG8SSml++5P3gjpNwJaAul8/I9NqTTQLN+jRMg600CRkd/IV6Bf/B+tKBKO3dB1SLeJC9GyyGuayKKyw0D3ClrjJFXUaoiafbZwZZex9t0DAPocdyMYYMdIuQyAvZoFsCrJ2IIZEbm5extCCOG0SmgbBY0tpvOg9yMbM7iM72ohGkLVtN2h8eDwqT5FJyAtbLwA+VKN+MSd9cukawoYy+wzbBFddPfYQO7IB2mLvf3UnByOSemSvv18p8AzVJ5RQOJjqOrpsvl/SIxtDbua9fZpsKIQ5YstN9iAbAJpN0tGKYKixqm33RmjxgeNdkJamVVk9E8BunvP4yJiRQWtYiKUnL0gS6kfYRnqUInx62ZONwHFQI4JW12KF7o4IYmuN0ayJUce2nFlTKTS5g5xJaCKObQjRWTOKmMZjS4kNXnehaK+8Vi42pXuhtwyOlmMk1ZlKG1PrMavxxunLgmYbdgdVIDO8n/e4YQFBMrYsmeE8M8q+wD7xKzlOgcV3wuzJZrH77Sen4t23XGGE1pTxoQKGGWtzgcJ6LpiEqELY/515eV0bIGpEM2rbPO953pAs3MhBl8hoQrIBYRyZnfxP3w7IOGJW4hZiHci5bOQZifNMF9HXFVQHae8mVNh2ZAOL3b8S2QjLj4lbDxLH3IzGKxcdO3XbGi7Wu0HTBFIjqk8eiWWEv+aa+XExfidnRtFlupiEXw/IOWIW2iFQ2mSgATjkthchPQmHruZZdQeIVUJ22ZGNdArdSkPibjkePHDo3eMa/KDfwLni1RfPxszMfV+zMTdyoNlgQB1/9ItrzcB58GwopN0D3mHWuSgXnyq8o6zLxqo4vgYAjslFYF1F9O5f1jjh8HsQzdJ5lqsCn3sB9HxHbFtFNk7Ji8jGPcoD6GYMjRWbe1JLa0JKbaraVGgyT1ZEcG4KMnv8lwLEKsGYJGqWWqgwEhKOdZWrnd/9fJGrVi0A57fNDrkKF9ImnDfUOopd4JsAKbQtgS0IvweWe8xXYfbo08ViWgklvK/n+RifEQBrH4kDsvHI1O6zruJ4Ngqy36532otaO20ftJ3XX0t7UutrHqHC4WNMwnlgDBPpMcNKs9aGFigmTcsJva89R4zmGSv3dC4s7oPlIU1o+N1NiKNpZCPlzAWxRX24EFbCfdPrlCF2HnQnxgUTdqWo2bh91o/jk00sRD2FKpDQdMMjFKnExS+2OJBuDpv9JToYCkkyTWSjQuaEZ/9I8rwE3l4n54YjrP6jVBAptYoEW3Akqi5EMpae6NL4V4ZkpE5X3TERcmtENrfaUXSPRqdZ68lmLZJN4lHvJlN7HuvUMLV3cMku7OA10p9ujmjs5PVKpz2qpT0Ja5dYrUK69/G6WXZx+g0xg9VkhLdb+3LEB87nstqZ8PCvN2kFuGPZPEsDt39O1z0ym5fAcLqXbLyOrtsx2UDCZ5Mhm92lej2J+0e6M/kc8+T1afawhb5SaoW+t42ZP/HhqYAnsYbBKh8mIBEyLAPojFnsWz2kCmIIWiQkdkE1sd21ht/dDHGkMKBsf043bLaYxnyygWwEzwgIp6IZsin7bLbE1HeKbNKmTZ8H8YjHOoQpH16xN5/1lNFjX1l3G9Of+Pgxtol1g9WyhpEQid+Fm2JKUIVY7FqbJZ4RJ9WJFJzYDnNCihck/rCKjj9//iTZrOEYHDmIUxRzM9mMWQbRfMXOLfZ0O4ffOwe8HKqsP0Y3kS3gRb2qySSxEokseaoQ6+qW9cES+2yRpryFQqEdZk8wzOH0BXLDGj5BrnqSbBxR4GLuA7IR3oS3jD95ZJO82DCy6c82kPnc5YIj+XLfjjzYf/UCey3tl9gmFF5f0QnsIelsoBX/0oLmFaIGotno1U4qhVd01pW0p2477rEXDCaCEt29AXTPcjcfp1BciLnGm7wcxBmy6eJYLW4dILOZK15pvHeDXivHikeX65Qa/GWy8aZzA5cEUQVEVBGfn0i0ELGEcCSjv0vPipKhB2f1LuSMsefIxk7Y2YVOMtjrFk2tFDkQpphIRhDfTjbbKbKxvgZ7thP5Q7I5fy/dGzxoZKjw32/VvgsRWXhfI7JBqlg92Yf9+RmXzWdEaZ2UlklAsQOPLyTNfdmQQN9WEfbw5+JssEurTZgV3PsaKIWk/0F4nKOdF5BNEySZynb2JqkZtPSjBtOTTRgHkDqg8wVfDNIUYLdkkt7UOqUQflGhdQDCyL6Uu/OjRQymmVXvNDtAtaC/K5tEJ/OwnuYw3NgqByS2MjicGr81glg5r6Wfk8beK6YME3bS3jq5hfQio1Orvh8gm70nwTHIFoXVAxUOkBsxDOAqny1aUTLiXjJnDiMbu7VjpJP7WN+NrwT6WGQYRKOgXL3qQVtRwRDqo1I8MMZE4iSRPopSy6wplw1gcL/8tKAFUX3/HCh8zy8t5sYuCFQfPHONAg092+X2tVEyyAIlc5f3gtCCvI8ykc/mmoAGdVowo0NMAcmmfRkwCfA2sBW+DZ1gfiedag8zsmPlkl3xxwnJ5qCvbX2mkfDOPnIIuc0tF5obUqfwxLFafaqQevWT3aNZhfy3jlTMUWgJrf4pBmRS6LVQwnmQl+DtL91JUoUVkvrgBedY8+rhVd8+RKMV5/X3cDaq6hmEfeWBIw8wkpOv3fulvQUxlsBCmJglXQBl4gOxJ5vtbrK5LqG9+qqVQJtjG8dBphpistkK6TSCZTUS35+0K3lUspHwONtC+jq5Dnnm3eY+Pv1DhcR6BJ+bDuJsMiv2rAWDnzE/rxF8ymxZJBtQwd1hUm/w6slKkyFTswuE/IMZWag2W0g2pVuZUrNxG7CqH6BZae1L5HeBVKw3oWYYJQwrK0tPP8OMAqzTBO4MssmghW0CPahENknnK5BSYegFrRmbDFxgOk4/81uSbD4WsEtGr0Elq6m0N2k2VpxQYxJIb9KSzb6TyRvvTja1NqataoxFK/3yfJU2pp+g3CQnxcQ0Oqs7DQQWRCc+FhHZjNL7GKNhy6e0qRWDUJ8IOSxnU1obpVJ2JF+w9HhLkzwXvKJQVOUuSDOZ1GyWVYS2Lr656d29OR8x7SER9PZBnDt3J6WFG6xHe4OByu2VTogLThVtzD3ZUDZ3W9Ab3CZX0Ap/n4hsDozM/L0wHgeyzSu4puFZCQ8sks2y7EqtaE0DmQYEpiCzlQfAljQI0kymHm+hXGJezHfJjC4VRdgtJCyQTb6VI9SSDTm1N+l83KbQKKlpUkohD9S+z+DoJcShjal1GcrqSaUYwEvwTg4tKv0dm1HFe2GyeTd0obiXcM1ZhPlsrLRoCOeyd8dI6dkw0k0+gytDacTN0zhCPiAR9EoCm+3ZTjapJNj4fjXzJTsh4UNJOAk1EWj7RaLeJ0zCX0PB0pRQByGPmHiJjUxtV25EIna8qdSD+QUoybsrPLPFel9+HJhsXo75f6A4U5+f6kDsrShkJGPtoC1DG3EHbQ+d9+E18FOmxOwlhLfg6waXrrUnm0AtQ0gB1pdkXU6mhLG0GqAhAKutJT1aaj1goFeacn6Ak9l2eK3qYi2z4J+d122IjclgVCHK1BdoGg01WVMCA4kv8SUOphDpzL0LI3s0JL4aU+/w5ON+eHysPNy7JlHVE6h+YGkmIhtra4blLvdmDoDKRxtoNnlLsnhjcZyNZh+ZGnYmG8ZoFDP1HVNBNcAjjcpLeAyz+1g8ZbdFrh0qZ9OMP3liork0c4yRY+fCsm5sQLe3YZygbkrCxlRcJUSKrVMda7kJP1wyujsGYyz8qe8j9eQS9s938bJoGqQayu/PNKWVkMs3Ar7HFmKHk9e53efYgx1raX6z3ixVR6pPtBm2z1zDGI+zyxWgiPQpGYE//Yr1hSV/KqhE1B3c+GkLrQuciVa6Yq5PQP8eXybZvikc1dJfBuMMiGyyj1vKMElRyzHlFHjLO6D1qddnhxHL8RFSNHifSpc53HSp9bZLeKc489L7njojuQlWMcJRz2DEcGSTOyLQ94uqy5Y9UhZpJPNir4Q6SeWDLcnlmXajJlJt1Hmsa0Ysd8hua40Ok6auXPsiEU11JzwjMqV+SkGuMWbEd0C5E1e9SDVeA3AEyhha8D8GmktjvxBq8XzxEtceJOWUSbpQbPtXWt/y8p2bRS4j3VT6VwsPbxgn79CiuiPX1Bz+SMjVn9WXdtVPKlGL1FkeMFZ/8pC2Lf79JyTPD9GYsjUYtq4CNIqiFyAooJO5wCme8c+XBx7aqyXtVcxLSWB6zERltu+8IHlaye6DREu7S5/6AYyOo8Yme7bsMFHXBIGJqeib+asUrD3Z2LKR07KNN7ikDNgAK1PNd12nIR0lx/s1BfU+UUyzWrrfZKxsEw7fnhfbPyTDiz9njYVWaS8ljoaSw0nvKWgmFfiMfskpc7d1gml4sQITLQqWXiZeC3BZgM2GmdhGCaF+7xcPMmuWDeR11+JIiDylQGGfB/zpS4dcfxrVNPHgS5RbuGilHSlNJ3U/a2OWHE7XbUy93vU1ZAN+GGmQ9m1PNjavlcsi9WZpDKGcTW1jC21Gyb04ohORUExj4Ksj2LbX/5u7tsfe0Vn4eqJ5CL+dnk8/bDved83G3FQU0FJ8wK6qfWoyrmwmX2q/Fdmsc7unFbzEdlQq7c5k3yfg6SlnWxD1CRzuA1QYe3I9yrWjySaSTBn5UHo8jTF/RdJVNCTa21cCVrj6lab3e68+XUc+/S6TaWPbb4HnBw5y6+7JxhUt8coRvNeQUq7JA6upEa+518ok6/LgsATZYPIVhxFkE70AlDVx6Z0QkY2b5Ehd/UrTbXtrmk8uVep6iQPF8Wa1ffVKsvnbd2Tjar1Kr9jJ6O6dxdrdADKTrF2bPAW51PqwoXzkU2QT/S5SokcbSrFqiV30Mf6dIx9RRx7raqGlG+luxh6olbeyDVjrXoQlUBJFCmwUmKvg+mLVZgDUTM/TfNOkTa4lr9qebADzIXhbbiIbN+kC9hTIfwy+x33cm2l9uo5ZYjJ7T18i/Bo9XgAXgwNieowcC3eSzcdolFRsYA3ZZUc2i082tm7KuzwaV5MJ1Fzh2TtuzLCeLfWyvUezuWxGlS/XrWmTDLlX08lLJMgGxKVJ37iPA3xylRBYy1o/dpGWUiablRp4kR2lvDSPRl/fgOZqDgW2ecpBHPtstmrtI31YfAvhrGM/ssG8e52aTl5iTzYSSxadMC8hbWM+RDboaDQuGJicbOTtFs4Dk+InKsfk2eahqe/EbFRdK+BEh8woz6YiSNlRN9uTze2ajbxmPew0m4d8NtIF6TWTDe4TtxeEzGGfMnc0KkPnekKcCW/OlrFLkU2Ei4Ek1Er5ElUH2QIOXr/QnzFwPmfns7mfbLzyc6ea371MntFswiC9Q7JZE2QjX0M2j+Bmu63kgCkgxzZVyxXENX+KaaR4Ca2cpMvvIp/IzaQR14trNOTmV8Qs38KlroeqzRAHcdjInmwqL+OxCPj/xjbmM2YUeBPYUEE2ianvF2k2DwGiObyh1zo79ZeJS6xZiHk5+dSRboQGkSm/a8gGS7CBrU2FBQs2JYpYHM/VUtrKEtM1gHiIjdnlEibLun8O4ArMiFseMqOsVmKiZQ7JJhHU97zPphiMfQ9uY9vzEYrpN0JNigkw6WLOPZM2nL94Cf2vrfWtuGWLyu8KEiWt4EhbwoDI5rj9sziy0IplrTpcAkg98f/a/9E5bGo4YAVRU+kPS7nsPVotF+8JSxnoJ14Opr63/XKFODbnZii14ncUq6zv5RgyeWpV8ixTSLrddxOekr8CSpHWU4wOI8VG1LIB8Y/eYjjHVMgTdWRzVZqKSpNa23s1EALKFRKQiqnWN9VpAHRi2XrFukamkFTVS7jyuy8jG9ROxBHZiMDHo/FknI1+6T529T0G9+XSqtekIXVINsGbEfBRP75Y4sjcaXSUma4mC4qqRlK9JW3q4ZQ2oI0ljZUgU56J4+tWo0w268VMd4ckbvb5tb511mBTls7QryldZ8iGSskE5XfL5V5uAtlNtCRKZiOIkWVocYJ34HMRxPC6mJprwVeHuNZ6iqnOJDxHR0pWtvWbNnle6RIFF7Ir6LZbtg9eXqh0+z1m0gpKk04kd9bItCcWTndU7Gp9a21z88rvKtKRgsrgCazG7shmmI3ZBGMDueV6gbNXLj6lmD1R8ixFP89ZUe8KXVaQI6ff05bQpdPPl3Ix6kcwbyTLJJR0btjjS7W+HZ0c1P0utH8BZSaQGG/XSDiRjZnXLMmhBdrGlBJHmcrvulrfqOtZstm8Wt9lzfUuqJkGL3TDW3Wj0k0uNg+cnfTWqxvW5BmMbSjdXG044dy6q0idmtNKZYxrKbtZcZFdW31uoWyhgfsKh6QDmYMOjEB0/HrnOtcweWWkMHXxzAFgqoA6C7jpzgYh+rmz6WncQeEZb89ncz/koCGBq7N+sNcES+V3e3KNWewby5i2QnquzI+63O0OchZaugvHSJ5WukSp/C6daJzD0dmeUpjubK7dO9DqgzwZZGacWyp1nmxPvfnsCFWgvX/GBikPx/UUXnsSDPnrUCT8Y5PdjItLe4cLyiERXEJ2qSDnLtNyC03t1m3L9eOgQyBlMnDSMyArela84dS+h7lGmUlNR5/gGu3BX1RGfANThKT+BTej4VYY1Nrh6JCAdR/0HitL9XKaJBvI5fFXDaI0hZdQVnnfJ163LLtSzZaQy67NS2Nj7i4xUOtLbrkdLW5IaI1x0WU9EkNoCgLUzC3JiWofWIgMP7YMR4e8FntD7LxlJqX1G6CHAEwUWVrjgZ2+hw6PMQme+4tRSF5HVNZ4eZPOZ3+JtSsVB+13JuOzqGeQVq7Rq7Lzp0hxyDdw/2LLC7DWdDr1eNtw9Ljx3e91gWxwkhX/mPnXHNlkHAb63zNW5yHGEFi9gZZh3KybVppfOr5E5Qu4GmNszGuoJpumRmtWSMtyQHBl5t23AO9Fl6OK9zUPR48VaDvt6DTZ6CgyiUHxinN0vRYTeJc4Ok82ub3XMEiQasU0y7hZN7CbNQK0A9U30dvG3F7GNGNQH+tbopuXxfAdQuBa+iWOfGwfjstzUclGLpGNWbtkVkTahQMpOTuadx1g8/RusfH6GAANGB+zAXiLRndHZ3XBMcv+nh6d0ZAtsb4vW4NwBargymrqbPqbG4dD0U2fVKSxenSNbABlyKzQwcCOE2TTHU+Lk7EqAZenk42pNJsk2SSbgPBvz959i3Ql0ezUzTlUJ4RcEG4ETg1HnxSE8YXPq0tg/cObq1admY36ObIxq9KNL0v/J9AySoQ6HQXxjPB1927xRThBHTUl2OaAJZtMba4qQK/64zFl9c4Oko6zOSabzs//0+KESwr0CiWb/SFnRt3NxHcXiroTcG4JfiCS8+o5sFjghnPD0Sm4KA4MvCcVUYVm01e2nhYno8/gH/BSlyYdx8kmvlftG4jTUgK+LjDt+KyObPQ49BiOC4iDqF5DNndc717A5vGIndfOHJjYCkdHnO7YG0ZnCE7l50bgGqOTusArIBzXaLK4Qps9llzF01FMNrci7Z1JHzpO7Xvr6CSglvEIXQ29IgbgQmq5DZlqxtUJBLn4uDwc1xW8Z8jmIM6mcEzHy70WFUz8k2Sj006oZTxq4ZhY92t4ovu4+jL+iNfUnmJVmWC1lpToMBxXO/ResmkUAq9IAIYiWyNlFmlCZFay/LTPBlQ4a1xcTIap9yP/43X7R84VMpyD0Qav38vZNfauI4/4bJIP+IVnHqd1vFICzg17reUnUJW/ouMtvX90dCqAdDdd5aQoq2gPX8tl8XoP3jAcc5ANYApwTDOMnlWz4BPD5DDhLm0R/sQyaTqtXQEbL3Qr6simsVdVOSneiYP1jxh8D2FUfp8cUl/DNtf8NYSLw/HMbNSWeMQLEzOKTVZ9CEaqYCSuCVjxK0hJmwPTlasjrkm/Gv0pIeIkTO6A2pHMpckYhqo4yEYbc1dBahYjE44NAEU3eprXHdhHuPq18zDeMRyPkU2kMWT0B8sTJp83lgiwFaTAVpAStC5LYrbduKhLJlkxmNpKdDGjNAnDTLR2/Z1k4+8i2qB/6ANFcecrSG2NrHU7Kv0maxiV348jvoJtXjIcz5HN5qsUWVuFyMYUKsESAWCFB6RdjWXyrWfL1ZnSAmAkDzPtACBtmUg7U4EKdG0q5CCdLjETezcQ+9EocY2kiglhlWIq6iIcFWNtUQHeClmr6aQ7sl8cC94Zo5eLV08HQRCV3yGvnMXEcTaEtwzHMxHEiNpcKlQdCqvWwYbeX/MPlUwivkCmkcQRKBtio4pK0hXydbWVpERNBpeRgj5DUtnNm6MtqibmcKOr0RLUWVB3gfYkuLsUcQUpbCVZa2dzuS2cAwt5nIaqrmzYSdQHrqJmg4F4PYNjujb2DN4yHLHr7ebKyRVMAzlvi4Kb7RZxmJdtGKXJUIatpGnMME02OvGO8MjG12w2rGR79U4bEQxK0cZ0JiNl+dB9Ryr2KkhJKlcnzSpeIhvdhsSP4C2kRWNSWgeWpGWkYMfysL7mFdRH1NlYWd2VvsrI9E7i1wxHtxQTw+C9XPf73B6z+Ch5vv4jyebSHhmvajgW8BXO02x8NrRG2yxhuv3t5jtwi9JsqoICuatQsxFBBSkBOGNHZOPMKNM21lOmtVsANMtnqBiohK/RkoQlbim0wjhmCOq5xsXKKrm6WE5th8ndNq8Zjn7Js8bh4ovTkc1muYNUAb0cm2wCFEw8zlAQ1n0r6FbjUGdiYi1i/2AKC9AJE90N+cc4B7Fp3BbP9GxM6bzuxMOgicsjm8240IaMTv0r1FvcvPT1UBjMbUi9Zjh2rPdCsrkGMqUyA6RTmcL+hFQjLwSULDxHAjJpZGID20ZJzmiuz+gzGxhSsToTaoWeGbWRxjjg1hrUdW9xs0r01N2j21s3uBUDhuMkSezMuTvIJppyBe/JRy2i48NbnGzRLBSLSops+vWnM0qKj0ew2cPMIWhVadPRmpDoHodoio9MLSy1LAeZUQ2OSH9x87J0SZcbYeIZqf563unh2PXkBrKJgsmiCQ4gWyZxxoWLfS262Zgb2Vw017fRcrOEheZmBLdBY9zwQOvaak67GUAMIwjsJozgyXMEttcP7yEb97zaPJlOM9f/d2Kbr+OazjeEfJ+xg0ze5MQJI7tkcEr519OLQ57gaVWbMTR56tfZrzkZTzakhFNcCE2WaBeBnnXuONU8H9mEah/yMX3CcMZ+FwP/T2r/QwN4XkbG0MK0qs17hiNxzh1kIzGIFUwlc0s23pRsKg/4mWtNxzUR2YCZs0YbU2IAYy8j873Dc7oA4yhWmFS1edFwJLShG8hGSCqeSWEgoRkFWAMmOu3MpV4rTFkEM9QY8Kyr9mAgMOxnf76QbM5HtvSfezGYdEJq2HA080TKz3OLGYXzHhS6YWoPuJUGkFqLdEYwXitMebiBMNEtgCHNlmyE7DbV/NrhuTCDMizad84w4mG9blY9U7Q3nmy0TbBt3spk/N+LRkslq2sfttcKUwG0vMAjm0Cz2YzZ2eNST/ljjnH+fTxOARmlIwzFe4Yjac+NJptEdN2oCY7XylIBuOycqmbisixpyvXqoYNUEN2pW33t+FxwNPSp3JjClC7icQzZOhzJqKnhQ3rbE/7eF3cBaGNqa8rE1GkfsV1AIWitQXTaV9mYF0RkoLFz2mf9IF4zHGkn3Jv5u0k8ZuWaeEti5ilxZ19lY54XkTjJbU9MaEe9ZjgyS0++hWym5JrKXvexMV87PhccDSMJYcL5qLcMR27pyZvJxsPRcugXy9IgtN3wm8fngog06fY6h1E9JnTaDLX86ocju8xthhEFD9kj7u3S82glm1H9uI4LjoaGU1XJBhAt2RLmq1fXOJJtC2rrmSwbAfhysqGYN/s1KTU/yDVtxtWbx+eCudKgfIDJINrCNtMFEbfpYrpERQNqFVDIF9V5PdnERJKIcPtJrvFwmHPr1eNzwYpqcIhSIYal/u0/nYe4xT8MonV00XOjAAAgAElEQVS9fDgc2VNhyffi5WSTKnMQi84jafVeAy+xZ24cXs01VxwN9XQgF3zQRUEW4nNm8xC3LPqQKt1hE9l4wwH5USymrH832eSspvy3XwLm7vA2pOjm7XrfBddIPdnYwneyXrUZOZE8BI2qWCPZWCNNK0WZsSmbqW8nm6PNbxelodjnfN8Px+sH6IJ/uFopAlupF5Zqr81001GNTqbWtGNmOGDNZyw7qvr16gEt5F3ZcMHV20VpKFLRfruowJcP0BWRrlaKpE821SL2atlIoFFHPEM2crWpn/c49Di/eUAL2XbVCk5R9op+Pypm5t4/QFeMlWrpEs54yloAe7xZNlIYTTYgXS7WPdnI42Kmbx7QchCfWMXrJWkosjYmJD6+FlfcsNUW2Emyef/oBRhNNkGa+Wjnh2qOzdMXk01JUkCx7HxRVz1xYGPCHFxzqSJcNRusPtlUP/KzkU1jf5vJxq+gE+xRsljjCZuUbD5GVOUNfi2KYTW6HO8MXHPJjGKyCTCYbFaAdU82+q1fGXzyZrIp7pSFKr2/gCO9r/YBeBq3kM1vmFGjNRvwygMKQQV1GhacvZdsomiaXYXHe3vzOhTVvlq99gW4MhvFZBNguIN4swUC1w/T6KqrTZechmxAhkMz2YPQG+VfWb1z+uQSHQ6e+u6GO8hGDeXpwoDvHdBYnKLSUj+u2uyC+eK904zPHWRzKqjvxbKRxg1xNpsewYYxTLXwQsTyEwVjTyNMYxAx78RG5hWyqc964C1XqD2HI4ij4/GvchN/OdnENQZmkqcBiOOE5yWbW9ZGeQsxq8/htVEBvOFYT3qz5iGbbV55GoDyyveZBudCJoeGU1fzMoaGFBPTrfpu7PD5Vd/5BBMHVzx32g2IZ6OOK97/Er5H7buSPKv+1BPJs746n83WTDYdhmMasil7RH8OO7UvEKKZRueCa6Tp1HWVFct3/BOmI5umkZQNQQAKX002BxHEE4nTCMRq3rxm1JXsWU2+g9iLfoT5VsM0DIcUJlym/owOw8FkMydCRSYWo6lG567qCo2YbjJqZH3QPsPx4hEtB+Tf149XojwAU40O143qhbcPx4vJppxi4sZ+vBFfRDZcEbMXRipjPYbjzWRzkEXht/FFNuZLa33PNYgar6n1ncaUZDOZMA1B0ci8rxtdcF5GxqkfE7psXj8c7x7StETNkahlNMpJU6fCeRkZ51iZ0Ip6/XC8m2ySvMJco/FFNiacV22GGQ6z5ZcwOLloqaLhHsPxcrJJ1iZ5pCPvw3EO4mlw/r05SgGZcC5K4d3D8XayiYRnklyX9+B76p6fV21GuVZmyT0W4YKOWESfaOr3k40tZX1Q0PoH8T02pjwtJGMWFUzpHlYYo9p0Go45BpWpJo3diEw7QqeLLMghT/B066IIY1iy03DMQTaMDAIGnpqNTz7PsIzghWkVmzE02Ws45h1Vhsa32JhwbiJlFSPcFNMqNmO8Nr2Gg8lmfnwB1Wwn3TZKDPq7KSadijK4UvUvjW7DwWTDeAlku25jBKt7cMmcMTaE9w4Hkw3jLWi2pPAl3lsRmTJ42OG9w8Fkw3gNoClRJdi8e33ZYcz81o147XDMPrCMr0KDK9Jnpp4heKPi4m7EW4eDyYbxJqy1ghJ4eHpKxMQzUYS3DgeTDeNVkEtNXlyIUpf30/Und9gYnA/IjtF1bovJhvEyHJdbgXXn3OklFP0njh/BO4eDyYbxNny4pFQHIUE1Wy+x+BKueelwMNkw3gcQOWMKZJJqtj7OhX7mx+NYO/BE7+FgsmG8ER+6WURcoEbqjblTrouX+B6u6TEc3amXyYbxUoBYl2VdhdTQX8pV5q4q/WLGHOd5iP978fzu1Mtkw3gxPsqMEOsHIlZzUrjGFl/jr0H8+Z//87LhYLJhfA+OJ7KygPX//PHn3//+27M7j+KP//znP//fheEYQL1MNowvwonFnHSi+Ps/Gopy+nbqCfz7h76Z//ek11w2LRypBZMN45sQR/tVQqtE//Hwx9/du3YnkDj/vDIc/cFkw/gunBAUaUTyD59tptZuiGu2U8NxkqGOwWTD+DK0ygqQPP79LVyz/avvwShnp4ejP5hsGF8HudTLl4ofxI//Oq6Z24gyvGn58uRw9AeTDeMLISrlKwxVtnbUH8M6dhf+/MPXzc4NR3cw2TC+EuIoBHBTvppQtv4ksvlzZM8ewZnh6A4mG8aXQhYFDPTucNu/X6PYJFAzHIMjqJlsGN8LtZjqI0K7Sn5q8UNKtGb3Dv9ddja1DkdvMNkwvhpgVlWtepGVXvmgF1ylJesPrdZMyzXKDDw4xAzHUjccvcFkw/gBAAjE7sXu4++ZTai/603AyuHoDSYbBoPwbyirf/wxkZKD3u03d5nJhsGwCET175kCbv6YYB6NyYbBSOLf12sKPv6eIBiRyYbBSIJWL7xaWXD48/3EyGTDYKTx7wymicW/71+ozmTDYOTw5/tD/F6uzARgsmEwslDKzavF+SCM711gsmEwCvj7zUaUdis93Yl6MNkwGFX49206xN9/TORSUmCyYTCq8Me7ZpbJff1yn5IPJhsGowavC2T5Y7o8X0w2DEYNSJF4jXD/PZcNtTHZMBh1sJm1nu6IxR//+fPVM2U7MNkwGHX48w3+2H//tKrVdBX1mGwYjFpUJIwZCzUBNY9DOMbsZAOwfVU1eMa78bfVK/7+827vzb9/Tp5IcD6yAQXvy3Zn+h8GA6F0jFt9JrbSzFROYR9vJpsPk+jEqIAwH4Teil+lVJkOmW0YdwNF/48bC4NTXM1r5sNa8WaykRJ0ctQPm6j/QJOPFGr7h2U+H6Umm+2mDKrzgdW+cbCTU/eJvr7kZBNQAV5MNopgiGxQg1GfYDM8Y3QcRTa/qdlYYxLw/410P/P981eaP4wB+JvYZuxl/v1cx36eWKnReDfZfLhECdBHjZH43VhR6r8NhFJ+th/VbLRupz5IVPmM3mfGDIzupw6Qowo3/zz+/fMP34Hyd38iMFdwutPESo1GlmzA+wuPvB61+rKhCSVJfJBslNtGE5D5//eA6t7m8Yv6RDyjB0ww2YzFv386JtAO466EM71DOMaObIDelPq9aR5kqSo+3M43ssY8+lm3BJHNJgWgBqNoRlGvRJJBsvnJ4bkdtppmP/XDlh7v1uLD2JGNmemRwigNQr0e9fPaRX9QvGAcC+YbOGtgjzopeUbreh5GjUEj06h+AshrDmaKjs2o+0AZi69Fwfz7999/2KA99ArdHs8zDDHZoFau9RkwZPN5igV0ccPiFLY0ahMYrV/mCmX1IxFsH66bhLYly5aWOm+GHjUKCjDsguRjfjmjl7KD+C7slk79+ccff//dsqIAPTSOrv69O5JnNCKy0cr5h2mExHejVDq5Vtg7vCL1VBI6eI3ij+/gQao+OHncMGxH3d55AUyz5UAbM9swVHnFHyLC34QhC6uXkBFU8rj8++9HlfG4JZpM/xqVBhGRjSYAp9noouOALHGZbIyUbjRlrZwNtT5eZIuNlIo6GZJAU1eG1HSYDkYEnruDBFvKXvqDo0b8Bvq3yKh9bB29Ed4yydi9S1GAeTb6OodwjB3Z4ISzliOkGfP8X9Y+SGsistEWFPpxDt7TNnjEbdiOJXxvEkrNNqfvBXWagC0Bdb9+RqbVmmgWbpByYhxooUnI7uRuiPUUq7jQAWR4RezTeUrrTdibUcbedwsE7HPYgWyMESPtMgTyYhbIpiBrB2JI5ObmZQwtiNMmoWkQPLaUxoveg2zM7D6yo41oBFnbdoPGh8ej8hSZhLywtQv+/RNdMDsriY7Ykc2fH575JhfNDsk4m9Qje/39SoFnqD6hhMLBVNfRZfP9kh7ZGHIz7+3TZEMhzBFbbrIH2QDQbJKOVgRDjVVtuzdCiw8c74K0NK3K6pkAdvP0w79/Ww/v3zmy+ZqZ7UPcGUFsrTGaNTH6+5YzayqFJneQMwlNxLENITprRhHTeGwpscHrLhTtldfKxaZ0L/SWwdFyjKQ6U2ljaj1mNd44fVnQbMPuoCH48I6B3fDRY6bLf3UJ9y9XGKE1ZXyogGHG2lygsJ4LJiGqEPZ/Z15e1waIGtGM2jbPe543JAs3ctAlMpqQbEBoZ9bWyf/EYOxRIJsgcczNaLxy0bFTt63hYr0bNE0gNaL65JFYRvhrrpkfF+N3cmYUXaaLSchgpJAjG3C4tT/28k9c9VE4V7z64tmYmbnvazbmRg40Gwyo449+d60ZYzwyZOMe5QF0M4bGis09qaU1IaU2VW0qNJknKyI4NwWZPZ7BuIrMbBRkv12GH7V22j5oO6+/lvak1tc8QoXDx5iEDEYKKbKJhainUAUSmm54hCKVuPjFFgfSzWGzTAeMGZEgm8Sj3k2m9jzWqWFq7+CSXdjBa6Q/3RzR2MnrlU57VEv7IlxYdNcRIMXqfCCJA55zySXJpmbTKewf6c7kc8yT16fZwxb6SqkV+t42Zv7Eh6cCvgagRFyIx7shl4WEWiZ7I9cbuxNgTzZp06bPg3jEYx3ClA+v2JvPesrosa+su43p5rmZba4ARfh5ttnEgmyS68tjbHMr2YxZBtF8xc4t9nQ7h987B7wcqqxMN6chFxy6SMKjOII7QpjWxXRBZDnlKbZJkE3yuGFk059tIPO5ywVH8uW+HXmw/+oF9loas40PufuQASz2iCU4VoQCtoxXfGAxvGfpL4H1Gf1rn4M4QzZdHKvFrQNkNnPFK433btBr5Vjx6HKdUoNMNj5WGX/IHul0BREI+f1kI43LBkqXguURL/HzZLOdIhvra7BnO5E/JJvz99K9wYNGhgr//VbtXFiJNtaCkqAhPckOpfx+skGXjSjyyfJICacXkU0TJGXAsbM3Sc2gpR81mJ5swjiA1AGdL/hCQJC1J0wYJu16DVhRIu0HOt6+33QpHfUtYKPF/1ImGxOxjQ363fA6pY+Rfnfjmwn7tmiWgZBOIFp/XKaiUXgD2ew9CY5BtiisHqhwAP7QuNGm4Qqa7H8vmTOHkY3d2jHSyX2s78Y3YV2kXGnGRq5COl1ErJ9dxg75MIwCuA8K8DlC6MM/f1Qbq5LtULKFzyh5svk0pXlBmKlqNWNNBADr+umhXoT/OUZ4vPdpW/1vCUZ8uk+3ou/l81V31U5JmbM+56sLuEOXJ3zEnckmqNMC8Tuk0LQvAyYB3ga2wrehE8zvpFPtYUZ2rFyyK/44Idkc9LWtzzQS3tlHDiG3ueVCE8K81NFFuur4NxRzMBK4ICOsJPz2A5pLKPlq1kcIda4IRDcQ5JJmI1RDQoBqQq5As0imh9gZ3bd1NQyCvt+VSAN090mtMn8xymaNrrQqqQG6NetFvhfVs1FVfYN95YEjDzCSU6BCeqW9BTGWwEKYmCVdAGXiA7Enm+1usrn+y/Xqq1YChX1Hmn9lqqEfJRtDHeZZQTklUXbivXny6ATT0AhYslEpgJQQrxHZeIJcJptVl47+HG9awSlroznht8/OD6MI7K5wd2A7hpez9yK8m7D3vGID2B1YnrCjKuNsMiv2rAWDnzE/rxF8ymxZJBsQIq6FAl49WSnQKlXthvyDGVmoNltINqVbmVKzcRuwqh+gWWntS+R3gVSsN6FmGBnsZWXp+8lGM4ZREVBqPbXBCq9VULwPi3/WR16ROpaAQ6rJZjX2kDreKEzSnLF6vfkwoH2saRteDglDEAMROUm3z14Wb8F5n5YbXNU71JBN0vkKpFQYekFrxiYDF5iO08/8liSbz2+/rsIfGSpZTaW9SbOx4oQak0B6k5Zs9p1M3nN3sqm1MW1VYyxa6Zfnq7Qx/QTlJjkpJqbRWd1pILAgOvGxiMhmlN43BaSVMxm4WkhaScERzqoJOEW440ifCSU3EPQS2SBbfRoUrjeGUYBso89OqzUJewSqKetmqZDuBcJjbI/I0noZ2eyfNu1Eiw9CZsFslsbE8YpCUZW7IM1kUrNZVuVq84YG39z07t6cj5j2kAh6+yDOnbuT0sIN1qO9Qc8XBX7phLjgVNHG3JMNZXO3Bb3BbXIFrfD3icjmwMjM38t3YHWi5wmcFUgRqAjeBy3ryne74VcbGtdANv5zvpBOoh1H6PjRFCIXWku52k+WV4SlF6lIyapZ/jEh2VifkvMQv5dsPj3bkY0ASvytFBys+UqVB8CWNAjSTKYebz0BsHrt57NSxrN+Ua+j1gtkk2/lCLVkQ07tTToftyk0SmqalFLIA7VPTTaIsEwdjq/N6kmlGMBL8E4OLSr9HZtRxXv5frKBJSWQqxNIctnYw2nHKjwd3JsQL5BNGMcLIQWQ19ezg8BcxZ60+LNK+opgfTQfpccx30K9ot4H90bKmN36FrIhbcLiQ4y7EEqscmSfaPCohRjHiJuncYR8QCJoqlR627OdbVJJsPH9auZLdkLCh5KI8ddEoO0XiXqfMAl/DQVLU0IdhDxi4iU2MrVduRGJ2PGmUg/mF6Ak767wzBbrfflx+HqyUaOKdot3r041yLhsolcueOJacBCHsboitNtW/3Casg5OCPsIq5r4Xsm15HQe2wNpXT1+M05py/DjTchl6vNTHYi9FYWMZKwdtGVoI+6g7cGsdmBU2EtkSsxeQngL/i926Vp7sgnUMoQUYH1J1uVkShhLqwEaAnDuv5SRqV5zwUNuyvkBTmbb4bWqi7XMgn92XrchNuYMQKVAiabwXTbS2VbkS0VppA+h3AdfC2QTxPtBZLd5DmFyuoQBhNGk+rYK31vsTb666XqrhrlLef6c5Nm3IZOpL9A0GmqypgQGEl/iSxyvAHRumhp5iNqj2B95vSqSz2C6M+uyXzmDqp5A9QNLMxHZWFszLHe5N3MA1k8jgWaTtySLNxbH2Wj2kalh/26y0dM+SDMBKdAXoV02YLQBq3GgzkEPr2lj9U7OxtlYf/O2Oa8vXXEz7TvOgZhsQgXEW4Hl0QW4L3LF3geRhSJ2eTtb7F5UZeo7poJqgEcalZfwGGb3sXjKbotcO1TOBghsTBnNpZljjBw7F5Z1YwO6vQ3jBHVTEjam4iohwu35jrXchB8uGd3dN0OiFmHmccjzC/aL0B5XNavxEXqguH9TKtAerv9EioU3bCK0UKRnoIWxL8I/F69LlIYa7BLRk/deIx7yovWkjjs2JXk8xkM/jszS411ITX0fqSeXsH++i5dF0yDVUH5/pimthFy+EfA9thA7nLzO7T7HHuxYS/Ob9WapOlJ9os2w/S/nGgwfFnbuWL0DBHLK+nlxSMUBSs4FBr+4D3plAqhQ323b80vCQ0JQiw1WFWq8BtuXkAI+dKFDpPRhgFeJlSQFu7RCm9ewIvUtyt2hWpE0PQXuNEOWHgeuT1hRl5crQBHpUzICf/oV6wtL/lSVmzVh8TQjbaF1gTPRSlfM9Qno3+PLJNs3haNa+jsfhAqkI2rQLLAiBaj1Q+rpwIlxuTiXKwo8rJ6si4gGcqu+TRvrssSPHniLHsxfIh/v2GjRgVQLsiyL6M+o9krs2mq1J+mtsVCBgSKgunes+s4+binDJEUtx5RT4C3vgNanXp8dRizHR0jR4H0qXeZw06XW2y7hneLMS+976ozkJljFCEf9uxANr/902geYvm7Rh/xrMphmEie9IbuOxPtJ2bE0FxxIXkm7wTp4FC9GbcpHFJsE2eSODG6sqLps2SNpwiR3MJ1z1Gyuf2pRbEkuz7QbNZFqo85jXTNiuUN2W2t0mDR15doXiWgqRi1sgN+wvFR0hVrfLrhsPLsePTHvve3IpuR/DDSXtquQpCldrniJa3ygnDJJF4pt/0rrW16+M++iA6SbSj+r4eEN4xS8u7NdVV6C1Bw+oxJgQ34HcY0jMVFpAgEuDd+TUz478VhEHS9On57iGf98eeChvVrSXsW8lASmx0xUZvvOC5Knlew+SLS0u/SpH8DoOGpssmfLDhN1vwxkm1Fc42kjay1VSD+Ax8NTXBORTfFxS8bKNuHw7Xmx/UMyvChNNRZatYW5OxpKDie9p6CZVOAz+iWnDFPNNeh5oXFcY31Bcq3+oUwpq3iWex+pcRdCsil24/rTqKaJB1+i3MJFK+1IaTqp+1kbs+Rwum5j6vWuTDbjMHgAdYY+0VYYAXTNuvBXf+53jjSb8FsqMOQq9o7OwtcTzYfjCvH3fm3H+67ZmJuKAlpKDqfLap+ajCubyZfaZwzHiefr6mPZFWFa5FAyZeRD6dHnmL8i6SoaEu3tKwErXP1K0/u9V220OK9P2/XrrjHQhmUwDlAgG0y+ktt9DjHZiFh5gqKLt7F9iModDyWbC03rBpJLlbpe4kBxZLJhDMXTZBNpNjrvvQ4fL8WqJXbRx9gOiXxEHXmsq4WWbqS7GXugVjLbMEYiTzaA+RAyu0+ihmzcpAvYUyD/Mfge93FvpvXpOmaJyew9fYnwa2RVAVwMDojpUYr+fMlg5PA2zeayGVW+XLemTTLkXk0nL5EgG1W26ErzO7WPyYZxH552EMc+m61a+0gfFt9CGFnSj2ww716nppOX2JONXM1CwBPmJaRtTCYbxn14eOo7MRtV1wo40SEzyrOpCFJ21M32ZHO7ZiPXS6tadpoN+2wYN6JENhH6zNhXzbcc9gMLOHj9Qn/GwPmcnc/mfrLxys+dan73MmHNhnEfmpYriGv+FNNI8RJaOUmX30U+UTUITaJSIcxWufkVMcu3cKnroWozxEEcNrInm8rLeCwC/r+xjclmFONGtCzEvJx86kg3QoPIlN81ZIMl2MDWpsKCBZsSRSyO52opbWWJ6RpAPMTG7HIJk2XdPwdwBWbELWxGMe5ES4oJMOlizj2TNm66eAn9r631rbhli8rvChIlreBIW8KAyOa4/bM4stCKZa06XAJIPfH/2v/ROWxqOGAFUVPpD0u57D1aLRdnMC6jKXmWKSTd7rsJT8lfAaVI6ylGh5FiI2rZgPhHbzGcYyrkiTqyuSpNRaVJirVtjVzyAsfLFVytb6rTAOjEsvWKdQJvIamql3Dld5lsGA+immyCNyPgo37cfuLI3Gl0lJmuJguKqkZSvSVt6uGUNqCNJY2VIFOeiYpbq0WZbNaLme4OSdzs82t966zBpiydoV9Tus6QDZWSCcrvlsu9MBgjcSXhOTpSsrKt37TJ80qXKLiQXYUuEefLBS8vVLr9HjNpBaVJpbo7PV9nTyyc7qjY1frW2ubmld9VpCMFlcETWI3dkc0wG5PBOMT1Ui5G/QjmjWSZhJLODXt8qda3o5ODut+F9i+gzAQS4+0aCSeyMfOaJTm0QNuYUuIoU/ldV+sbdT1LNptX67usuTIYA3F3kTo1p5XKGNdSdrPiIru2+txC2UID9xUOSQcyBx0Ygej49c51rmHyykhh6uKZA8BUAXUWcNOdMRjdUFN+tyfXbCaL//4SspiqvPkqsZHVqemchZbuwjGSp5UuUSq/Syca53B0tqcUpjuba5fB6IR0pvZDkfCPTXJEXFzaO1xQDongErJLBTl3mZZbaGq3bluuHwcd+qgnycBJz4Cs6FnxhlP7mGsYNyBXFqJeTpNkA7k8/qpBAfajuwSsHUrj7i6FvqS+rR5suAJpbMzdJQZqfcktDEZ/XC/DKaX1G6CHAEwUWVrjgd0cKzo8espT3HjfFv02j6is8fImnc/+EmtXKg7a70zGDEYOHcgGJ1nxj5l/zZFNxmGg/x0S6TGGwOoNtAzjZt200tS6iS+hqu911s8G2JgMRgmXyUZHkUkMileco+u1mMC7xNF5ssntvdi97i2aZivFNMu4WTewFzeJdqD6JnrbmBszDeNudCEbs3bJrIi0CwdScnY07zrA5undYuP1MQAaMD5mA/AWje6OzuqC15ddJXvHTMO4EX3IBlCGzAodDOw4QTbd8bQ4GasScHk62Zg6xi51dLKJcoDMpd4x2TBuxHWfjRdX5qpVZ2ajfo5szKp048vS/wm0jCCxaPMgiGeEr7t3iwxGHtfJJo10nM0x2XR+/p8WJ1xSoFco2ewPOTPq9the5hrGnRhFNmlUaDZ9ZetpcTL6DP4BL3Vp0nGcbOJ71T7Gj+F1ZHPH9e4FbB6P2HntzIGJrXB0xOmOvWF0GL8DJptHkPbOpA8dp/a9dXQY34l7yeYgzqZwTMfLvRYVTMxkw5gXLySbRiHwigRgKLI1UiaTpnQsDftsGF+Cm8km9YBfeOZxWscrJeDcsNdafgJV+Ss63tJco8OYHu8mG8AU4JhmGD2rZsEnhslhwl3aIvyJZdJ0WrsCNl7oVtSRTWOvqnJSMBg34G6y2T/ihYkZxSarPgQjVTAS1wSs+BWkpM2B6crVEdekVxX5U0LESZjcAbUjmUuTMQxVcZCNNuaugtSsRiZjetxONpHGkNEfLE+YfN5YIsBWkAJbQUrQuiyJ2Xbjoi6ZZMVgaivRxYzSJAwz0dr1d5KNv4tog/6hDxTFna8gtTWyFoNxGfeTzearFFlbhcjGFCrBEgFghQekXY1l8q1ny9WZ0gJgJA8z7QAgbZlIO1OBCnRtKuQgqdkrkyFiHPajUeIaSRUTwirFVNRFOCrG2qICvBWyVtNJd2S/OBa8M3i5OKMdD5DNtvmiUTqOqkNh1TrY0Ptr/qGSScQXyDSSOAJlQ2xUUUm6Qr6utpKUqMngMlLQZ0gquzlktXUeVRNzuNHVaAnqLKi7QHsS3F2KuIIUtpKstbO53BbOgYU8TkNVVzaMwXB4hGws3RQPKVeQIlEQIqrLYBtGaTKUYStpGjNMk41OvCM8svE1mw0r2V6900YEg1K0MZ3JSFk+dN+Rir0KUpLK1Sle9TQb3YbEj+AtpEVjUloHlqRlpGDH8rC+JoMR4yGyqYD3ct3vc3vM4qPk+fqPJJtLe2S8quFYwFc4T7Px2dAabbOE6W6yCaKEitJsqoICuatQsxFBBSkBOGNHZOPMKNM21lOmtVsANMtnqBiohI1xLaIAACAASURBVK/RkoQlbim0wjh+OBhfhPeSzdUXpyObzXIHqQJ6OTbZBCiYeJyhIKz7VtCtxqHOxMRaxP7BFBagEya6G/KPcQ5i07gtnunZmNJ53YmHQROXRzabcaGxasNowIvJ5hrIlMq8fXUqU9ifkGrkhYCShedIQCaNTGxg2yjJGc31GX1mA0MqVmdCrdAzozbSGEfdH+MbcSfZRFOu4D35qEV0fHiLky2ahWJRSZFNv/50Rknx8Qg2e5g5BK0qbTpaExLd4xBN8ZGphaWWJZtRjEbcSDZRMFk0wQFkyyTOuHCxr0U3G3Mjm4vm+jZabpaw0NyM4PYDY8zoi3vJxj2vNk+m08z1/53Y5uvkoPMNId9n7CCTNzlxwsguMb4e95ENKeEUF0KTJdpFoGedO041zycIodqHfEyfMJyx38XA/5PaP98AMl6PO8lGYhArCEmxZ2DqMWwuTqTPteYTlb2NKa2NKTGAsZeROeHwML4AN5KNkFQ8k8JAQjMKsAZMdNqZS80nTMEMNQY8K31vw0Bg2M/+MNkw5sKtZhTOe1Dohqk94FYaQGot0hnBmFCY3ECY6BbAkGZLNkJ2m2qecHgY34D7yEZSOPy2ba7YlPdR7agucFLCjMJEyws8sgk0m82YnT0uxf4YxjO4i2wS0XWjJjhmlCVcdk5VM3FZljTlevXQQSqI7tStzjg+jG/AbZrNbU/4lC9utDG1NWVi6rSP2C6gELTWIDrtN2xMxndghuUKTeIxK9fEWxIzT4k7+w0bk/Ed+DaymZJrKnvdx8accXwYX4EZyMbD0XLo35Olthv+vfFhvAczkQ14yB5xb5eeRyvZjOoHg3GESciGYt7s16TU/CDXtBlXvzg+jNdgGrKJiSQR4faTXOPhMOfWj48P42FMQjapMgex6Px2LicvsWduHJhrGI9iDrLJWU35b78EzN3hbUjRza/rfYzHMQvZHG3+aVHa53zfD8dPDxDjFZiCbAp5VzZccPXTopSK9ttFBf7yADFegRnIppBtV63gFGWv6PejYmbutweI8Q7MTTZKiMQqfluSsjYmJD4yGI9hArIpSQqAXJf1p0XpwMYE5hrGSzA52XyMqA/Z/HRJkWJYjS7Hy1zDeAVmIJviTlmo0vsLONL71p8eHcab8H6yiaJpdhUe7+3N61BU++Svq32MN2E6sgEZFmD4cbIpk61Y17VPLlEG4zJmI5stLi3146rNLpgv3vvj48N4EaYjGxCitPvXEDEvG5mM92I6solrDPy4PMVxwkw2jNdiPrLZWJ48lFe+//jgMN6F2chmt+bwx8WJ1T7GNJiObMoe0Z/DTu0LnDi/PjqMV+H9ZHMQQfzj4hSreWxGMV4LJpu5ESoy0WTUz48O41WYnGx+XprKA/Dro8N4FSYgm3KKiRv78UYw2TCmwQxkc5BF4bfBNiZjFkxNNixMB0bmfd1gMA4xBdlkJIoTtSiUk6YyGK/BHGST5BXmGg22MRmTYBKySdYmeaQj78NxDmIG4w2YhWwi4eFclx647jljCsxDNraU9UFB6x8E25iMGTAR2Wwe3zzdkZdhNyI8QoxRkIlPDiAFhbHvds9FNowMAgZmNmZ0hCpg4lJZg/0k12X3mIFKsC8XgQdEe5lsvgRsY74HKlF25zzz8jFlVbMLrIvEb6S2fBhoTzZmk1xWPCbaO7SjjDvBVPME9Iv/g3UlgtFbuv4KWsSjfLh3wVwWEyXBQvcIW+ImV9RpiJoitmGyYTCuAT5UI3XdHJI+uXSVK5TZZ9gmuOrqsYfYkQ3QFnv/a9BlJhsG4xo+MmZk0BoWYunJC5KE+hG2kR6lCJ9e9mQjcBzUiKDVtfjmJJMNg1GJjIX6eY8bFhAkY8uScdmc8eR4Aptrdigcp8Dim0V7slnsfvspUPGYbBiMOkDGEbMStxDrQM5lI8+Im2e6iL6uoDpIezehwrYjG1js/pXIRvj8yGTDYFQBco6YhXYIlDa5xJO+BrntRUhPwqGreVbdAWKVkF12ZCOdQrfSkAS3zGTD+EWAywyvjSOXTzXIrapL44A+VC6+3HhHWZeNVXF8DUC1gAV2RGBdxVV3vMvqHtH+IJql8yxXBT73Auj5jti2imwCJY/JhvFzALFKMCaJmqUWKoyEhGNd5Wrndz9f5KpVC8D5bbNDrsKFtAnnDbWOYhf4JkAKbUtgC8LvgeUe81VsOG8udat6dyjhfT3Px/iMAFj7SByQjUemdh/4BMtkw/g1GMNEesyw0qy1oQWKSdNyQu9r7x2tecbKPZ0Li/tgeUgTGn53E+JoGtlIOXNBbFEfLoSVcN/0OmWInQfdiXHBhF0pajZu3+LRI5MN48cgSaaJbFTInPDsH0mel8Db6+TccITVf5QKIqVWkSjKJPSOEslYeqJL418ZkpE6XXXHRMitEdncakfRPRqdZq0nm5XJhsFwdonVKqR7H6+bZRen3xAzWE1GeLu1L0d84Hwuq50JD/96k1YUjrNsnqWB2z+n6x6ZzUtgON1LNl5H1+2YbCDhs2GyYfww1jBY5cMEJEKGZQCdMYt9q4dUQQyxxi4bi9juWsPvboY4UhhQtj+nGzZbTGM+2UA2gmcEhFPRDNmUfTZbYuqbyYbxu4h1g9WyhpEQid+Fm2JKUIVYbFH1JZ4RJ9WJFJzYDnNCihck/rCKjj9//iTZrOEYHDmIkxTDZMP4WUS2gBf1qiaTxCoiX0OCKsRqj/InvglIU95CodAOsycY5nD6ArlhDZ8gVz1JNvbatJj7gGyEN+Et408bkw3jxxAKr6/oBPaQdDbQin9pQfMKUQPRbPRqJ5XCKzrrStpTtx332AsGE0GJ7t4Aume5m49TKC7EXONNCkw2jJ9CxA3edG7gkiCqgIgq4vMTiRYilhCOZPR36VlRMvTgrN6FnDH2HNnYCTu70EkGe92iqZUiB8IUExxBzPhlRGThfY3IBqli9WQf9udnXDYAdCBomQQUO/D4QtLclw0J9G0VYQ9/Ls4Gu7TahFnBva+BUkj6H4THBe54JhvGT4E0BdgtmaQ3tc4ThV9UaB2AMLIv5e78aBGDaWbVO80OUC3o78omEeB7msNwY6sckNjK4HBq/NYIYuW8ll5OGnevmDJM2El76+QW0l98yau+Gb8L9LHIMIhGQbl61TqmFRUMoT4qxQNjTCROEumjKLXMmnLZAAb3y08LWhDV98+Bwvf80mJu7IJYabGjNdco0NDXDe5eGyWlbznJ3OW9BNj+0jLy9iCYbBi/BalTeKIMrD5VSL36ye7RrEL+W0cq5ii0hFb/FAMyKfRaKOE8yEvw9pfuJKnCCkl98IJzrHn18KpvH6LRiots1p5dYTAmQLTe2t/jpcfCo2iLv6ec5tnuxeNsC+nr5DrkmXeb+/hAPpsAIbEeIeImJhsG492wThO4M8gmgxa2ifUgJhsG492w5VPa1IpBqE+EvCtnw2TDYLwcyDav4JrAHGw8kMmGwXg7dKG4l3DNBTDZMBjvx9OO4S5gsmEwGLeAyYbBYNwCJhsGg3ELmGwYDMYtYLJhMBi3gMmGwWDcAiYbBoNRC1Vyb9WLVD/YhQgfgMmG8RD8tASJ3VLQs1xe9zgJAGG/P9mZc/gQjSlbIyVILJX1IZz6O2GyYdwFubpCbopM8AOkMkJJnU4GFwXNGjvrcQspA3QnYKr5rus0pCPXxcvzjgDFONU/D5MN4yYIzIBH38xflTZzTza2Pu2kbKOEUL/3iwfB5zDLvbJBRbgfIk8pUNgXgsmGcRMw3zeWeqPsA9JL+W0BLt242TAb2ygbsM36g2aj5EYc0YlIvC8SYLJh3APwH7Ugv+T+SbUJ9Fy6ulcKYQhPTznbgqhP4HAfoMLYk2tFrh0mG8ZNyKa33JENeBk0qSbjnVUFTgDkodXUiNfocpVJ1uXxYUw2jJvgPbQizIMdP6auOpJX9+Q1wpfC2t0AAuWPfcE9y6XWhw2HRzLZMO7C6tV+9LfvyMYVlZZeVaXR3Xsd1EzP03zTRPLrgbH7ez8h4yGAdSOKsNZSohoKPZbOoLq1yHUlkvFBna/wrA+nMcN6ttSLAZMN4xbAukqqarJGFT5isll8srEFml7mOlVemqsO4bejuZpDmW2YbBh3wHhpUGWJtJQy2azUwKseVXm7hfPApPiJyjFFtnnVL8j4VqBz2LhgYH6yWW8P/KkPnesGcSa8uVTG7k2/IONbIV2QXjPZ4D5xe+XZ1+Fmu+3AAZNDgW2YbBjjEQbpHZLNmiAbyWRj1JvbrnXWI5+PS2SyYQwHeBPYUEE2ianvd2g28vkZsdsG4XyEYvaHYrJhDIfVSky0zCHZJIL6XuCzUWrF83x3F0q+lwPI3KlP/4KMH4ClDPQTLwdT39t+uUIcm3M7VCKMN1HN4L5cWoyWM6SYbBjDYckGtRNxRDYiXoj5dJwNvC6mRoydm7rWeoapmGwYw0F2Ey2JktkIYmQZWpzgHfhwBPHLIgo3nYps3IhkLaFLpzPZMMbD2EBuXXDg7JWLTylmT5Q8S6/yu6WnM2Eg3VxtOO3cYrJh3ACVO9KLEfOW96m8totNOGknvfXqhjV5BsNCDsq8AVdpAZKaIJMN4w5AmPUyKyTuoPCMC1Klk3Or1HmyPfXm63Ott/cP4Hg4rqfwSv5cTDaMB9A62XEymlWntFpWVRFAwxQhqU89M6M+VWDl2uHokBcxuXCMyYbxBKBJUznz9IMuB7DnFVMQoGZuSU5U+8BCZPixZTg65LVIGmJMNoxH0DLfAe1Cr1dl58+S4pBv4P7FlhdgizSkU4+3DUePG0/9ZEw2jGdQzyDNXFO1QlqWA4IrM+++BXgvuhxVvK95OHosDElpR0w2jKdQTTaNzVbH+pbo5mUxfIcQuMR1iQOS2ofj8lxUrhEmG8Z3QbbE+r5sDcIVqIIrq6mz6W9uHA5FN31SkSbUIyYbxjeh2ambc6hOCLkg3AicGo4+KQgTF2ayYXwRTlBHTQm2OWDJJlMypwrQq/54grKYbBhfAziXgyUQyXn1HFgscMO54egUXJQIDGSyYXwLTksJ+LrAtGrO6shGj0OP4biARGwDkw3jS3AqPzcCV0Oc1AVeAeG4RpPFFdrsseQqMR3FZMN4LdQyHrGq0rYVCwwupJbbkKlmXJ1AkIuPy8NxXcFjsmHMAr0aXC3jUYsGxbpfwxNJw9WX8Ue8pvYUg8S1Tka16TAcVzv0jWQDcF8SaMYtABXOGikzZg2P0zwi/+N1+0fOFTKcg9EGr9/LyaWvXke+w2cDCt6X9ycCYDRArRjMmE2uclKU7K+Hr+WyeL0HbxiO6cjmwyT6sQOE+SD0VvyqqmvAA6VJGWNwsP4Rg+8hjMrvk0Pqa9jmmr+GcHE4ppuNkhL0m+zDJuo/0OQjhdquUgCB/m+bbyHLbZhN7YNjA0DRjZ7mdQf2Ea5+7TyMdwzHbGSjCIbIBjUY9Qk2wzNGx1Fk85uajTUmAf/fSPcz3z9/JUyQbc6h0m+yhlH5/TjiK9jmJcMxIdl8uAQwkyF+N1aU+k9nOv1dzQYoraNElc/ofWbMwOh+6oAXlHGsQ/V0EARR+R3yyllMHGdDeMtwtEUQg/cXHnk9avVlQxNKkvgg2Si3jSYg8//vAdW9zeMX9Yl4Rg+YmIhs6gNXUbPBQLyewTFdG3sGbxmOhOstQTZAb0r93jQPshTyAb6pyk89m1uiG4hsNikANRhFM4p6JZIMks0Uw1MfUWdjZfV99VVGpncSv2Y46lJMmJkeKYzSINTrUT+vXfQHxQvGsWC+gbMGkj2panLy5+MkjBqDRqZR/QSQ1xzMFN08ZlQ917hYWSVXF8up7TC52+Y1w1GXPAu1cq3PgCGbz1MsoIsbFqewpVGbwGj9Wm1KHn35eu667s81crItWba01Hkz9KhRUIBhFyQf88sZvXQSB3H9K9Rb3Lz09VAYzG1IvWY4Uqy3T1gqjTdWSHw3SqWTa4W9wytSTyWhg9co/vgOHqTqg5PHDcN21O2dF8A0Ww60MbMNQ5VX/CEibEWDuu4tblaJnrp7dHvrBrdiwHCcnEJKmXO7pjQBOM1GKekCkCUuk42R0o2mrJWzodbHi2yxkVJRJ0MSaOrKkJoO08GIwHN3kGBL2Ut/cNSI30D/Fhm1b+o3cIgGR6S/uHlZuqTLjTDxjFR/Pe/0cKR6kiAbnHDWcoQ0Y57/y9oHaU1ENtqCQj/OUWENCh5xG7ZjCd+bhFKzzel7QZ0mYEtA3a+fkWm1JpqFG6ScGAdaaBI+4k5ueKB1bTWn3QwghhEEdhNG8OQ5Akvqhykzytj7boGAfQ47kI0xYqRdhkBezALZFGTtQAyJ3Ny8jKEFcdokNA2Cx5bSeNF7kI2Z3Ud2tBGNIGvbbtD48HhUniKT8PaFraeUfz2JMYQXplVtxtDkqV8nueYk073UI3v9/UqBZ6g+oYTCwVTX0WXz/ZIe2RhyM+/t02RDIcwRW26yB9kA0GySjlYEQ41Vbbs3QosPHO+CtDStyuqZgJvdPOdlZAwtTKvavGc40ufcO67WGqNZE6O/bzmzplJocgc5k9BEHNsQorNmFDGNx5YSG7zuQtFeea1cmGIaxlsGR8sxkupMpY2p9ZjVeOP0ZUGzzc3uoNMFGEexwqSqzYuGI60NPUHiI7SmjA8VMMxYmwsU1nPBJEQVwv7vzMvr2gBRI5pR2+Z5z/OGZOFGDrpERhOSDQjtzNo6+Z/qcT6ypf/ci8GkE1LDhqOZJDJ+nmI7QeKYm9F45aJjp25bw8V6N2iaQGpE9ckjsYzw11wzPy7G7+TMKLpMF5OwARdmUIZF+84ZRjys182qZ4b28mQDDo2X6oIpwkP6wrni1RfPxszMfV+zMTdyoNlgQB1/dPtas/Pv43EKyCgdYSjeMxw5ey5LNu5RHkA3Y2is2NyTWloTUmpT1aZCk3myIoJzU5DZ48fggqOhT+XGFKZ0EY9jyNbhyEVNZWejIPvtMvyotdP2Qdt5/bW0J7W+5hEqHD7GJKzHBREZaOyc9lk/iNcMR9YJlyabWIh6ClUgoemGRyhSiYtfbHEg3Rw2O4WOVoXzIpJIctsNE9pRrxmO/NKTJNkkHvVuMrXnsU4NU3sHl+zCDl4j/enmiMZOXq902nNa2gVHw0hCmHA+6i3DUVh6kiGbmk2nsH+kO5PPMU9en2YPW+grpVboe9uY+ROfnAq4ICJNur1ZGFONCZ02Qy2/+uEoLXNLtZI2bfo8iEc81iFM+fCKvfmsp4we+8q625hunvsBtrngaGg4VZVsANGSLWG+enWNI9k241jPZKUIwJvJZswyiOYrdm6xp9s5/N454OVQZb2bbi6YKw3KB5gMoi1sM10QcZsupktUNKBWAYViUZ0k2aTbqbvcQWcGKk1eg5nPXS44ki/37ciD/VcvsNfSbmWbC1ZUg0OUCjEs9W//6TzELf5hEK3r5cPhyJ4KS7EXqRzEGbLp4lgtbh0gs5krXmm8d4NeK8eKR5frlBq8l2wuOBrq6UAu+JSLsiwE58zmIW5Z9CFVusMmsvGGA/KjeJSy/g1ks50iG+trsGc7kT8km/P30r3Bg0aGCv/9Vm2EC66RerKxhe9kvWozciJ5CBpVsUaysUaaVooyY3Nopr6KbJogKQOOnb1JagYt/ajB9GQTxgGkDuh8wRIu+IerlSKwlXphqfbaTDcd1ehkak07ZoYD1nzGsoqqX+8gm70nwTHIFoXVAxUOkBsxDOAqn82fWBl0L5kzh5GN3dox0sl9rO/GEFwR6WqlSPpkUy1i05FN2692hmzkalM/71Hjce5ONkGdFszoEFNAsmlfBkwCvA1shW9DJ5jfSafaw4zsWLlkV/xxQrI56Gtbn2kkvLOPHEJuc8uFLuGKsVItXcIZT1kLYA8mm/B4kC4X655sZFUx04bZqKq7gX3lgSMPMJKTr937pb0FMZbAQpiYJV0AZeIDsSeb7W6yuS6hvfqqlUAbwobjIFMNPU42V9yw1RbYSbK51VF+HaPJJkgzH+38UE2VeVodZ5NZsWctGPyM+XmN4FNmyyLZgBBxLRTw6slKkyFTswuE/IMZWag2W0g2pVuZUrNxG7CqH6BZae1L5HeBVKw3oWYYJQwrK0v3idmVinDVbLD6ZFOtsMxGNo39bSYbv4JOsOej8dS6z+rIJul8BVIqDL2gNWOTgQtMx+lnfkuSzaez6xoEk1PJairtTZqNFSfUmATSm7Rks+9k8q67k02tjWmrGmPRSr88X6WN6ScoN8lJMTGNzupOA4EF0YmPRUQ2o/S+Rlwxo5hsAgwmmxVg3ZMNaKapvnLd2ii5il2TgMyC2SyNieMVhaIqd0GayaRms6wfTddnR3xz07vb8xHTHhJBbx/EuXN3Ulq4wXq0N+j5osAvnRAXnCramHuyoWzutqA3uE2uoBX+PhHZHBiZ+XvpjFvI5jfMqNGaDXjlAYWggjptKYUqyebT7I5sBFDib6XgYM1XqjwAtqRBkGYy9XiLVX6MPq/9fFZKKBVF2C0kLJBNvpUj1JINObU36XzcptAoqWlSSiEP1L7P4AgRlqnD8bVZPakUA3gJ3smhRaW/YzOqeC93ks0FNyyTTYDhDuLNFgj8PJK7p7KukeRW1BgsPsrHzi7DKkf2iQaPWohxjLh5GkfIBySCpkqltz3b3ab7w8b3q5kv2QkJH0oixl8TgbZfJOp9wiT8NRQsTQl1EPKIiZfYyNR25UYkYsebSj2YX4CSvLvCM1us9+XHYQ6y4anvAHeQjRrKK4UB85n6/FQHYm9FISMZawdtGdqIO2h7MKsdGBX2Eu0seYzwFnzd4NK19mQTqGUIKcD6kqzLyZQwllYDNARgtbWkR+vzHlkDvdKU8wOczLbDa1UXa5kF/+y8bkNszGbcQTangvqYbKLjzR/Ihdm0NBIhUgZaarKmBAYSX+JLHK8AdG6aGnmI2qPYH3m9KpLPYLozKXc8qnoC1Q8szURkY23NsNzl3swBULkRAs0mb0kWbyyOs9HsI1PDPgvZ1Gc98JYr1J7DEcTR8fhXuYn7ks3+CTymgmqARxqVl/AYZvexeMpui1w7VM7GWX7riYnm0swxRo6dC8u6sQHd3oZxgropCRtTcZUQKbZOdazlJvxwyeju7sMta6O8hZjV5/DaqADecKwXSu+kWk7q8z3ZJnOF7Ma8byGzP9MUNM3U5QC+bwxih5PXud3n2IMda2l+s94sVUeqT7QZtn8r11zJ5NBw6mpextCQYmK6Vd+NHT6/6jufYOL4ovtNObdh5oeCItKnZAT+9CvWF5b8qR9aqA9AKl4tZaF1gTPRSlfM9Qno3+PLJNs3haNa+nsVV5Jn1Z96InnWV+ez2ZrJps9w7Mkm+7ilDJMUtRxTToG3vANan3p9dhixHB8hRYP3qXSZw02XWm+7hHeKMy+976kzkptgFSMc9SVccI00nbrq8IqGe/vyTH2yIQhAYRzZ5I4N9P2i6rJlj5RFGsm82CuhTvqY5UW5PNNu1ESqjTqPdc2I5Q7Zba3RYdLUlWtfJKKpRuOCotnkO2iZ41D46hzEUphwmfoz+gzHjmxK/sdAc2m7DkmaWJNpZ/zD2hqOzv/YSUkXim3/SutbXr5zs8hlpJtKy194eMM4eYcW1R25pubwB+Ou6gqNmG4yamR90G7DsWulOH16imf884/WUlwtaa9iXkoC02MmKrN95wXJ00p2HyRa2l361A9gdBw1NtmzZYeJumZw3ahemGA4YrIpPm7JWNkmHL49L7Z/SIYXpanGQqu2MHdHQ8nhpPcUNJMKqFQAx5rrveCKmJ0wUhnrNBxxD4u62PWnUU0TD75EuYWLVtqR0nRS97M2ZsnhdN3G1OtdX0Y2L631PZ3L5kW1vrPYaTbht1RgyFXsHZ2Fryeah/Bbz5C1MtlcszE3vYi/5HC6rPapybiymXyp/XM4LyPj1I8JXTYzDEfUTCSZMvKh9HgaY/6KpKtoSLS3D1HZ1UttHylNV220OK9P2/XrrjHQhj2H8zIyzrEyoRU1w3AUyQaTr+R2n0NMNmKnTBVdvI3tqwXWhatfabptb03zyaVKXS9xoDg+QTZwIfx9VH9nyy9hcH7R0lHDnYbjebKJNBtJaQahFKuW2EUfYzsk8hF15LGuFlq6ke5m7IFaOZdqM0oBmXAuSuH1w1EiG8B8CJndJ1FDNm7SBewpkP8YfI/7uDfT+nQds8Rk9p6+RPg1sqoALgYHxPQoRX++bMV51WaUa2VkBM9AXNARi+gWTf0+zeayGVW+XLemTTLkXk0nL5EgGxCXJGEXTNzfJ9cOeVpIxiwqmNI9rDBGtek3HM87iGOfzVatfaQPi28hjCzpRzaYd69T08lL7MlGFe8R2ynzEtI25gvI5nyRBTmEFqZbF0UYw5L9huPxqe/EbFRdK+BEh8woz6YiSNlRN9uTze2ajVzPZ2XcEprNC3w22+nnWaUx7NyTbWLFZgxNdhyOMtnEO68FktRdorIfWMDB6xf6MwbO5+x8NveTjVd+7lTzu5fJGzSbzwN96qZWMcJNMa1iM8Zr03E4GpcriGv+FNNI8RJaOUmX30U+kZtJI65sVLNVbn5FzPItXOp6qNoMcRCHjezJpvIyHouA/29sY77CjDrptlFi0N9NMelUlMGVqn9p9ByOtoWYl5NPHelGaBCZ8ruGbLAEG9jaVFiwYFOiiMXxXC2lrSwxXQOIh9iYXS5hsqz75wCuwIy45SVmlGKb5ufKCFb34JI5Y2wIrx6OthQTYNLFnHsmbTh/8RL6X1vrW3HLFpXfFSRKWsGRtoQBkc1x+2dxZKEVy1p1uASQeuL/tf+jc9jUcMAKoqbSH5Zy2Xu0Wi4+GM2WFL7EeysiUwYPO7x6OBqTZ5lC0u2+m/CU/BVQirSeYnQYKTailg2If/QWwzmmQp6oI5ur0lRUmqRYL9u3UK6QgFRMtb6pepLacQAAIABJREFUTgOgE8vWK9Y1MoWkql7Cld99Ldl82KZl8MDm3evLDmPmt27Em4ejgWyCNyPgo358hcSRudPoKDNdTRYUVY2kekva1MMpbUAbSxorQaY8ExW3Vosy2awXM90dkrjZ59f61lmDTVk6Q7+mdJ0hGyolE5TfLZd7eRQNVO0zU88QvFFxcTfixcNxLeE5OlKysq3ftMnzSpcouJBdQTcR58sFLy9Uuv0eM2kFpUmlujs9X2dPLJzuqNjV+tba5uaV31WkIwWVwRNYjd2RzTAbswP2ZVczCDw8PSVi4pkowouHo0cpF6N+BPNGskxCSeeGPb5U69vRyUHd70L7F1BmAonxdo2EE9mYec2SHFqgbUwpcZSp/K6r9Y26niWbzav1XdZcn4WsUg0hSl3eT9ef3GFjcD4gO0bvua37i9SpOa1UxrjWlNQHF9m11ecWyhYauK9wSDqQOejACETHr3eucw2TV0YKUxfPHACmCqizgJvu7F4cl1uBfVhjL6HoP3H8CF47HHXld3tyzWay+O8vIYupypuvEhtZnZrOWWjpLhwjeVrpEqXyu3SicQ5HZ3tKYbqzuXZvxYdLivnDkhHUfcTiS7jmvcOR00APRcI/Nvl0xMWlvcMF5ZAILiG7VJBzl2m5haZ267bl+nHQoY96kgyc9AzIip4Vbzi17y1cs+mXUcaYyi/W6OFc6Gd+PI61A08MGI68uVsvp0mygVwef9WgAPvRXQLWDqVxd5dCX1LfVg82XIE0NubuEgO1vuSWJ6F133jNnNQbc6dcFy/xPVzTYzhGUG8P35qU1m+AHgIwUWRpjQd2c6zo8OgpT3HjfVv02zyissbLm3Q++0usXak4aL8zGXeBClZfVJZUDf2lfPtXlX4xY47zPC4Pxwjq7UI2OMmKf8z8a45sMg4D/W+zZNZgDIHVG2gZxs26aaWpdRNfYm2qYHiMMTZmV+ileKtKzFzzGrrGFl/jryG8cTg6kI2OIpMYFK84R9drMYF3iaPzZJPbe7F73Vs0zVaKaZZxs25gL24S7UD1TfS2Mbd3M007jieyssBCqt8yEgpyuTIcY6i3E9mYtUtmRaRdOJCSs6N51wE2T+8WG6+PAdCA8TEbgLdodHd0Vhe8vuwq2bvvkq+TYyQXIZfF1L8eYsrfj89YyLOZj06feIReZAMoQ2aFDgZ2nCCb7nhanIxVCbg8nWxMpdkkySbZRDlA5lLvvkO0EHG0XyW0SrR4mDQHsQftcrkyHEPQw2fjxZW5atWZ2aifIxuzKt34svR/Ai0jSLw+DoJ4Rvi6e7f4LE4IijQiufpsM/uoEMucGI6TDFWFcYtc03E2x2TT+fl/WpxwSYFeoWSzP+TMqLuZ+Omll/3RKitA8ii/h2vARR2dHo4huHtFfYVm01e2nn5wjD6Df8BLXZp0HCeb+F61bwTkUi9fKn6QPjqumd2ICsoynhyOIXgh2dxxvXsBm8cjdl47c2BiKxwdcbpjbxid7hCV8hWGKq/fwjUxzg3HCDDZPIS0dyZ96Di1762jcxHiKARw09GTgWwJ5JpvWPgd4cxwjMDticnKcTaFYzpe7rWoYGImmyrIooCB3h1tw5mob4vu06gZjvHPwivJplEIvCIBGIpsjZTJpCmtwbPP5hTUYqp9KhM1H7gmRetb9RpE63AMwP0pV5NLjs+3ZqZ1vFICzg17reUnUJW/ouMtzTU67QCzqmrVi6z0yge94Cp928ppM7VakwqmCA/Qw7HUDccAvJ1sAFOAY5ph9KyaBZ8YJocJd2mL8CeWSdNp7QrYeKFbUUc2jb3KHz8ZFZ+Fqh5vUFyRICfnmtrA38rhGIAHkskn8hukjjL/fthk1YdgpApG4pqAFb+ClLQ5MF25OuKatJLoTwkRJ2FyB9SOZC5NxjBUxUE22pi7ClKzGpmDAXNzzdAImT54onJFqDFk9AfLEyafN5YIsBWkwFaQErQuS2K23bioSyZZMZjaSnQxozQJw0y0dv2dZOPvItqgf+gDRXHnK0htjaz1/QhmiMesRRuGYeuZeuKRMjm+SpG1VYhsTKESLBEAVnhA2tVYJt96tlydKS0ARvIw0w4A0paJtDMVqEDXpkIO0mlUIJMhYhz2o1HiGkkVE8IqxVTURTgqxtqiArwVslbTSXdkvzgWvDO+aLl4EiPD9vtjArVme4hsts0XjdJxVB0Kq9bBht5f8w+VTCK+QKaRxBEoG2KjikrSFfJ1tZWkRE0Gl5GCPkNS2c2bf8WqiTnc6Gq0BHUW1F2gPQnuLkVcQQpbSRvuLreFc2Ahj9NQ1ZUNmxdzCLDBHD19rABgBdNAztui4Ga7hYjqMtiGUZoMZdhKmsYM02SjE+8Ij2x8zWbDSrZX77QRwaAUbUxnMlKWD913pGKvgpSkcnWKVz3NRrch8SN4C2nRmJTWgSVpGSnYsTysrzk95lJuJsCbq416L9f9PrfHLD5Knq//SLK5tEfGqxqOBXyF8zQbnw2t0TZLmG5/afgO3KI0m6qgQO4q1GxEUEFKAM7YEdk4M8q0jfWUae0WAM3yGSoGKuFrtCRhiVsKrTCOH44nMYUnZB68mWyuvjgd2WyWO0gV0MuxySZAwcTjDAVh3beCbjUOdSYm1iL2D6awAJ0w0d2Qf4xzEJvGbfFMz8aUzutOPAyauDyy2YwL7dtf/d9+f7fi1WRzDWRKZd6+OpUp7E9INfJCQMnCcyQgk0YmNrBtlOSM5vqMPrOBIRWrM6FW6JlRG2mMo+6PUYHDML534V6yiaZcwXvyUYvo+PAWJ1s0C8WikiKbfv3pjJLi4xFs9jBM44JkA0g2YObJUc0Jp/jI1MJSy/L7zah3Y3RGiO64lWyiYLJoggPIlkmcceFiX4tuNuZGNhfN9W203CxhobkZwe0HxtjihTdaVxj9TbibbNzzavNkOs1c/9+Jbb5ODjrfEPJ9xg4yeZMTJ4zs0osBrxPslqRYb8GdZENKOMWF0GSJdhHoWeeOU83zCUKo9iEf0ycMZ+x3MfD/pPbPN4AjMT6zVBvkfFRzN9lIDGIFU+nQko03JdvJ5zWhqOxtTGltTIkBjL2MzAmH52m8jW4mxK1kIyQVz6QwkNCMAqwBE5125lLzPRbBDDUGPOt0shgIDPvZHyabWzE2G/gP4GYzCuc9KHTD1B5wKw0gtRbpjGBMKExuIEx0C2BIsyUbIbtNNU84PAyNqX+4O8lGUjj8tm2u2JT3Ue2oLnBSwozCRMsLPLIJNJvNmJ09LsX+mEkh16nLzNxHNonoulETHDPKEi47p6qZuCxLmnK9euggFUR36lZnHJ934YkBhH3e5Mlwo2Zz2w805YsbbUxtTZmYOu0jtgsoBK01iE77DRvzbbgra6/DHdUPRmOO5QpN4jEr18RbEjNPiTv7DRvzdZBiEbeqGZMl80ri+8hmSq6p7HUfG3PG8XkfQOkaT3diLsxBNh6OlkP/niy13fDvjc843LA07KtWus5FNuAhe8S9XXoerWQzqh+M3kiU0psa05ANxbzZr0mp+UGuaTOufnF8xgPW7g4cULXjpncJh5iIbGIiSUS4/STXeDjMufXj4zMMhhp62jzyXv/zLZiGbFLWayw6v53LyUvsmRsH5pqBUOUmLzfy1T/QLGSTs5ry334JmLvD25Cim1/X+27EiZE2VbenjhA+wjxkc7T5p0Vpn/N9Pxw/PUA3Q+gi2i3lbT8niK522AsxCdkU8q5suODqp0UpFe23iwr85QG6HVpRsXNJJkmI9xOYmhgfQrIbbu/h/ZiDbArZdtUKTlH2in4/KmbmfnuAngasCstixU1+voqvV2UizE42SojEKn5bkrI2JiQ+MhgPYQqyKUkKqLDxGXMk9sOBjQnMNYxXYHqyMSEO3xeT0IBiWI0ux8tcw3gB5iCb4k5ZqNL7CzjS+27PhsBgJDED2UTRNLsKj/f25nUoqn3y19U+xnswIdmADFf2/zjZlMlWqFmPHx8hxkswH9ns8gj9uGqzC+aL9/74+DBegwnJBoQo7f41RMzLRibjrZiQbOIaAz8uT3GcMJPNI9iVqX8EKmzZZWFJHPCo/25GstlYnjyUV77/+ODcBVAiLh7PEgrSBSnLZG/kemN3YsxHNrs1hz8uTqz2PQ8U4efZZhMLskmuL0+yzYRkU/aI/hx2al+gKf/66NwCSYkhYm9iaLTcEe9ESdhFllMeZJsZyOYggvjHxSlW89iM6gS5+5ABuBLgYTFwEUrXDcUYABPiyEJenPUx/YvJZnaEikw0GfXzo3MeNhbyMChydbqCCIT8frKRxmUDpUvB8pSXeHqy+XlpKg/Ar4/Oadiq2ofltaUn2aGU30826LIRRT5ZnhL6KcimnGLixn68EUw2TdC6HwTfLJS7y/hZYEWJtB/oeDuxjOXXIzYK8nqWycasyccG/W54ndLHSL+78c2EfVs0y0BIJ/oa3ixlmYoGYg6yOcii8NtgG7MB6yLVcjHzRarMnZYCxPrZZewQleZqUbxhPyjA5wihD5cq7ac+TEaSLXxGyZONSlWgRF6YqWo1Y22T+q3rp4dSd2j5nOJ479O2+t8SjPh0n25F38vnq+6qnZIyZ33OVxdwhy4P+YgnJxsWpgMj875uTAHzUkcX6arj31DMwUjggoywkvDbD2guoeSrWR8h1LkiEN1AkEuajVANCQGqCbmCLeWre4id0X1bMQs6+n5XIg3Q3Se1yvzFKJs1utKqYm6Abs16kW/HJGSTkShO1KJQTprK8GCow+gGKKckyk68N08enWAaGgFLNqqwkxLiNSIbT5DLZLNuKiTqc7xpBaesjeaE3z47P4wisLvC3YHtGF7O3ovwbsLe84oNYHdgeciOmoVskrzCXKPBNmY1DDOgqwWl1lMbrPBaBcX7sPhnfeQVqWMJOKSabFZjD6njjcIkzRmr15sPA1qbibbh5ZAwBDEQkZPcdmRCqpDzPi03uKpTmIZskrVJHunI+3Ccg5hhIK2cycDVQtJKCo5wVk3AKcIdR/pMKLmBoJfIBtnq06DYvClrxShAttFnp9WahD0C1ZR1s1RI9wLhMbZHZGkx2dQjEB7OdemB657XYnWi5wmcFUgRqAjeBy3rYGuzfDQQOr2BbDwKINbD/Nno+NEUIm1KbT+5tqRJbaIXqUjJqln+MSHZWJ+S8xAz2VQAAjzdmzeBbcxKwJISyNUJJLls7OG0Y1WTP+4EKzgFsgnjeCGkAPL6enYQmKvYkxZ/VklfEayPZhEe8y3UK+p9cG+kjNmtTDZ1YKpJYzciPEJpiAVdsGF0DKkGGZeNUkR8tdoT14KDOIzVFaHdtvqH05R1cELYR1jVxPdKriWvoMjqOomuHr8Zp7Rl+PE+zEY2jAyieovMNQmgUqBEU/guG+lsK/KlojTSh1Dug68Fsgni/SCy2zyHMDldwgDCaFJ9W4XvLXZ0Am663qph7lKePyd59p1gsvkasI15AD3tgzQTkAJ9EdplY+ajN6txoM6Bh5sDPRqQEdn438B9gyDQmCjA5xyIySZUQLwVWB5dgPsiV+x9EFkoYpc3x9kwuoCppgSJWoSZxyHPL9gvQntcPxuUfwQo7l9/cIfrP5FiEaxQCCwU6RloYeyL8M/F6xKlmZxEYcOfBrwVocRDXrSe1HHHelGCz3jox5FZerwRTDaMX4HA0BSaO1ZagUBOWUF+ZPnDAUrOBQa/uA96ZQKoUN9t2/NLwkNCUIsNVhVqHBZtXUIK+NCFkNgPVX4ndBxteM3FqTpC+5BgRepbQCXmXuxSBtcLVHv8xaJeUPTNYLJh/AqECqQjatAssK7Wear1BpwYl4tzuaLAw+rJuohoILfq27SxLktcuwu8RQ/mL5GPd2y06ECqBVmWRfRn9FlL7NpqtSfprbFQgYEioDpe9c1gDAaEk3aRR50OMV+36MMWJ3f24E0ziZPekF1H4v2k7Fiai4LOTA/tBuvgUbwYtSmfUmyYbBiMq7ABfsPyUtEVan274LLx7Hr00Lz3xmTDYFwG2JDfQVzjSExUCizg0vA9OeWzEw8Hkw2DcRXINuOqqlttZK2lCukH8Hh4kGuYbBiM69DzQuO4xvqC5FrtEzKlrOJZbvGUv0aByYbB6IDBsU06Q59oK4wAumZdVG2jb7fawGTDYMyAE7GabwvxZLJhMBi3gMmGwWDcAiYbBoNxC5hsGAzGLWCymQgwJiUWcMUXxh1gspkHUuIq5a4A3SzTDWM4mGymgU4f0J1tMMkCsw1jOJhsZgHWKYL6GFJzfPBnD+GyMDEYQ8FkMwksyYi2KNIDLrHx723BqQxGO5hsXg2dHtKkvbWJTKKkAfukLGajSYCiC4OAl6jNS9yi66HRjoZVNwzGKTDZvBggVgmmPpBjhW0NioqoJTMmn62UEh066qPKcqlzYEu9RMbsUTt0NswPCW36fy/lPqs2jLFgsnkxVAVG+SGGDz946dWCHI/qi7aRPqwDuEuq9LQ6/aX6F0w7gMdoUvnQj1rWt4KXWW5h1YYxFkw2b4ZRahRveFm1/QTboPKbgNV8tNpiDCJTOcQk2UWtRR8DmAD7w0gfi2p1DLMy2TDGgsnmxTBlh3TFIU8FCbL54xdwVGGYRbMQsYxRi3Q7aI5hsgIIyObJVCeMHwCTzYshHEl4ZBMkrJYr1gNwLh1jShlNh2qg4TGA/h1bFdonm8fyYDN+BEw2L4bA4vPrltVsVFYl8LehMoM1kjBdpZ7JUs5izKQE5KBhzYZxH5hs3gtjChneyPhsNtRIXG1XTxsiljGmE3geYKsIsc+GcR+YbN4LQwlGVdnNRpngG9qDig/pOGq+XK2v/JwK5ggIyMYSSzAbdcc9MX4YTDbvhaYRMGE1QZyN2qeNnhWpBHlJSlNsGqRc1Uz4Zxdo/tHhfmZqS0+FW97hOBvGfWCyeS+E9ugiG0QRxKaAvaIUYaJsPh+lmdRehQDQzGL8OfRHrp89MnQng+AIYsZduJNssEZoVMY02IAZml+UpPk5qKkitwIByH9L8cJmJYOtGwuSPunxNLsluGP9kXbDy2ujGLdhNNmoONXVe+SlCsD34+2lV/fcVG/X9W54ZiQ2bDALROuq7yNIXvXNuAmDyUY9w37GFGnW+ThfJIa7rrRs8IMhaVsmRFwAXusl/RPPcD4bxk0YTTbW/2jYw7CKFxWCIWhm3sV74vnp389Fq5R6sv+wDGqWwYgwmmzstIdHKsqJifvJVNC2k/QJ5smaxI2wHpFws3RMa6uF1cs0iGWJCXcQIzDRMG7BYLKheHh0b+6i5GleZDHBIotLnwDvDmgFITDk1pCM8kVJv8ugs0PgagEDtUCbVQjGz2I02YgFVRqfbNw6HCIbtUFFoi2LtbDWN6s22srDSWcTsas+e8kfwK1NAu2JEsKGwjAYP4mxZCOFxIAQE/WaIBtcvWOC7D/KgWUb8ebAD5NtU/ufcBW1l8pBb6BlTUD8gqra13q+jQYbBy3YGXnc22ZLMr4KI8kGtAhqHlmQbGj9HzEK0Y+lGKUKmU/REqB3AUJfFIXkWvMQ1ybpmwiO7D51/Sgk2ZI02ShkYEvqt81qf2sFQUzN+DmMJBvhpp6WjGZjEldK4dbtWEKSr46fR5nCVQTUV+FIdEWycbqOXft4YzfHQkjLtiZU2eTucmyDG3BwNNnwRPvvYiDZ+JmbAmspyJ2iUqxIn1hIYN9ONpTxTn0Tlmywz06zsQsDbATwIM+3iybe7OTXYJg15Rs5rvAXi/N4kUnpMQyHEP4kBpKNFURHNvu8cga+yURvxjeTjUozru9BhJzik42+C3cTMp6A690jHQ8J/hfcM450LG0Kj1S8H1P4g+ATDMds/iQGkg0+alookWwkJcMNTQnppzcgqXyxz0biKkf7Fl+RQByRoOvJaTYiDi3qAfA8IoEu431TfhUxZsad3gtGa/sQrNlqb9Ay7qq/eGUheNnnL2K4ZmMeRJpawvXHZg8dGCo6tCLwvbNR2H2PbHaajXZ0q0Vfzonjcjn0ujGVR6KKRWBUhDCSLM3FEdmsdjeRDag157juTffovW8SxjCM9tlgDgNa5+OtjQJ60UlaGWUMf3r9vdaRCjStXSIbdSMffcJFL3qOjKtkc94w0rVcrl3ca0wVoVrcWjciGSIdOxxmFD6MJyzbxLot4xcwdjZKFVDDCV+sVC0ErfpGoVOGANlNnze1VfjfG0GMguKTzW42CiH3VtRlsvkM6Xk7TLnjO/lL9M+oCSZahELmlI2icqqOJE3PHcP4HQz9zb1UNfbNrrahRqMfRPeqVW9K996Vr331+bNsOOm0i7PBI724GxmdfvLa4rL/ZbeG6ySMuqJIIyYbq9koP40O1LS/pUdIbzWSGcNw2wum8XX84lAMZAu/VkoYQWzZ081yew7ROHNE48UvnNu1KXRciT3Z+O5+lR1QevqeNZ8Ek83v4T5ttkl7f/PcqNFXKHSYzAK3NsqmAvMiarx8YScd391lE66pSEY10eRh5xhjBzFeyNdi0JwEJpsfxI2mc4P6/u78KnJVuYHR0SRom6R8wbjOS3oE46UrP5d/U17w0+SgwylPjzOtdhOObJBAdkm/PLuRch6zz+YXcXsO4u6HPgDnd0r5osBwTTDtIz3eab83xW5DRgTOcxhlPfMyLwb1N901fIc42Mic17rkGMPAL5iLaI28P2Efijf6rwRmz9CfaY0phjRs3gopiREOZq6ARgs4v/oPgsnmKtomd74mn40Kk6LU9S6S2G4zITagZs+QiFSQow2i4gjiXwSTzWW08MdLuUae0J10pAJ+JmtMbcPyMSZU3It9EL6HaIALivF6MNlcxzBf1H3UJK+ZNa2BCl+V1IdRi+fI5p4sCPMCRsxA5SEvRWy3sc2Lg6gYA/EI2QCodQwmD0LHxTpfBXm3W/hauEFLJvd3BzYwhuF+sjHLc6TJ76Rs/CvRHt+Ll3p3smh4Z/Dr5UdxN9nolZjhw6amLJhuGIxvx71kA7klx/IL6AYVtcldUV06/w+hQ1uMr8GtEcSF7AYU6z8pyAll/1wQ2Wep6uKSqQ/R/PW///33/9H473//99dfTDgMxI1kc/AYwysDZasAoaPb+L9PyuzjS1DhTNAN4cM0SDQWH8Lp2DvGxLiPbA7nVi895Q8CksRycub6DQre+VnwHdMg37B6w9huJJuaNUQzsg3kS7O0O6Jeot3BKbL553+e8fTXP//889dHzSH2+R/TDeMusqnjkfmivYqaSDN3zDbf7eOv/6LRFNCKtav+y8bUz+MmsqnVWWbTbY76+war6BYYtea/KQXmH6IhVm5+HPeQTf1amKlqJVbM3Dzu770H//y3ZCsR3TDb/DZuIZuWdXcTsU0dkbzDDXMCDTbtX0eGEio+zDY/jVvIpuntPo1s1iotVfT5xkDAapv2rwoXsFZumG1+GneQDTQpK9M4iasptOLAd1pblWyjeeTQ/8ts8/O4g2waBemVcrdHfRjNMZO8tSJfFfH/U8U1eNz/rneKMStuIJtWL8wcqk2Lunbks3pvLqmKiJtarmk5kvGVuIFsmiVphmiTNkYs8+0c7JrD/+r1lX/YkPppjCebNo/NuTPuRyMhlg2pmblGE0jtwQ3ExPg+jCebM7VLXi99zUl3339LJ6H4o1pZYUPqpzGcbOBENbL321HNPZzE651GgSj/amMPxTZsSP0qhpPNmSC9MwR1L5oVlRlMwxwKs2nN5NFIToxvwnCyOWU/vHZ2BnGCOtLjcG599d3IG4H/tDphFDux1+ZH8U6yebvRcaJ/ScNrFldOtp9NHpuTZzC+BaPJ5pw4vXyB1BkzL3XOO+OGU8j8jCf0lGZdiPE1eCfZvNzDcYoL96bhu7km7G56efsZD8x/G6bKGV+F8WRz6qx3e4hPzZbtmaXYzEe6+xec0OnY41ZTNeMqr/6/E8TxF9tRv4rRZHNyFvvdZHPONNyNRGGlt1Z6+nt0QC7LrhsisQnqrn7G2/sPz0f9KphsTmC8aYhqUPdZObnsR1bGV0HzroJtzvAGz0f9LN5pRr2bbMabhuQU2vHAKXj9FUtF32k9+2GGiXNKyhnbi/ENeCfZvNtnc5JA6/Uhl3Fi7eApB+FGc92bTPmr7xJfxOeec78w2fwqeDaqHUPIRpXupXIMYqFDRajaSCHJnatKiOI+aVUQqivqNybXxZaUgcW2bA8Fbenqf4395K4ZXX03C/fXqbUHfzHZ/CjeSTYj42x0f5Q0hh3ztuiS3Vr40n3vQDYJb/HHwvnI//phA1itKiJ9TUQVj9MHYJEYo7Eo0gB9mNoo8ZNqTGg95nOGo6UF6QOUqaS5RNJBHxoTajestqMy1oOiGbXzZMPTUb+IX4sgxvf4513vCZWRU6AXuVwURJYpz/qh/MslZpsXtfHzr0824PlYdKFKsw+0eaXJRhrGkLgR+cE0Zjw0nn6yYnNSn2+OXbWx9FGmPoy0KrJxl5SxhyfqN5MNowXjyeYMbwxz2RhDwciqX2VWCyQKua7cbdScNNtcd3qnBsW4U9R0kSfj4GaPTKdNHw1/AFhyAdxIPCWwMRHyFU58w6rPN9dZ8dYVC6urpa+OCH3GTDaMFnznqu9sBIuZaDGiiCKnj1+87X6PkxMyl8kmOSamN0oZ8cXdKTlEENLnA+8ejE6E/XWNoYmFh5ijhVV/6NZB6zf6c5FswlA/9tkwWvDOfDYXXTYyd02T7BeM38OLZsNPRrg+AmslCpJpzdtMQyAtyTWaYjDHd0mykbQffAeyd+i6uuhgbEwrS14tcpz4DtQfYRUq/FwmmwDnyIZno34V4zP1nQgVaTG9AAw1qH/NR5D2dY/7cKcSSPVNorA5sVo98wKWZfF8pKnut5mGID7taY8zuoWTepckbSuIvHM2kHD7iSztWebI1WkdXmPb6rtsnEZjdy9gWzf+IJ9syqzPU9+MFownm3Y1pWUG6yPD6n0thYYXAAAgAElEQVQuxSpUQIkAb65XzSrpsH/52a4YyLg9rDA7oabwE/UX1CzOQurAbkLGXLTpfoR2OH+a/PQve6ZwQp90EBMpiIBsnHIWOHPJipKuBXDn4aHSXQvQcSOCS+4dxBHOBfVxBPGv4k3VFeiN3yDLZgYYlPagIlCMzHzk1lhLeoYJPymysVM1RDZ499bzQRrOZw/NEa8JS6LRafNhP4fMaPizTFs09a282oYopFS3icQDzuaR9qaMdrO4xtQZOF/l7tv3kiuj0RAMHuq7gQ5+iVNro/7La6N+FHfUjarlDpT5esXGmD2rmeVVDEAzK8Q17mUtnbGQIJslJButBAj6kLhwm2kIPtk4pSmA7hOF7DrbzYTCqH06cubDgsIQy8dANIyhCEIP2KfHFKhnPL/ms9Bn6Llw4QgUaLfUQ2Mnr8wfunqKaLfNSz5xxiL6h1d9/ypuIJtq8oBVC2K93SW01YME46jFqAfKMUpBtIsIZ2EiMyrWbLx9nsniodE0JDsK/y4JY0oJuoszpFUKhn20l9rYiOiwVqki0P+jPkH4SRMMNYaBxv9/e+eC7Lqqo2FXP0ZDdd/ZUHcPh97T0RlPptMGiYdfMS87Jvm/qrNOtuNgs5b5I4SQKE0uQfFt/g3xopv8to63K/h7DYdrnDY2VV/hR8B3cEf53VzTxloA84gqMGwm48fSpELQif+p/Jth++GR2ESfTVwMV+/EpjAu2sgEio6NG5n6hat7pUgPLu5g/zCjph0f9JuEFusz5epHBYbjLLLGaQOXzc9yh9jkDk0Zk9lWg9UT8kG/LlZ28sFt/O3u16K8YPgVbpkamdVSzyLyJorN7qXL1qPEWRPEZpvAajVjYdOpMqHNrp+phLOrR8usfB6F8gq/yx1ikxtrY974NPZIsj55Z03yOlokQVT8B7SPs1mFqywCXGSasj9wC2VATz7w5cBHvFn3MQ3Js84WkTJaON6r4Qg9KJcOFI76XW4Rm0wfhzn84t/H2yMvu/wiS7duZcWur4jYJH7hOArTMJSwcPUS9RFTKThT92+9LNTGO42U09KdKY7e9Nn2oeQSbxsrb4M2+SRSwt/zn9KMwjBsfph7xGY1NolcMlxLuvs6iE3mYo+Lvnc7K40s3VofDf98uRHn8jFQ3InozRQVdi9KgG3cyche0pCL/Gj1N8fqiN30G6/VgZBuN6E30LWxA3x2Cv0///1f/8F/x6xLoiLmL3OT2MRCAmRD2+yzyZj5nz7UTfu1mtzVKz0pMUmU+IQpbACyS1tKVldilFrMsGBkH6Y4j43i6ED3uWThZp3SJXBmrG26aSP6VPYU8fHw3838399/uH8uYvH0D/cHhs0Pc5PYyNKGVZrdWYTiaI90o0AOqxUWSn7uL79EzQvvbk6n5INHq7+vtxMpJ6g73TQ543EAqvtnJ1HYqvCz3CY2NuDDHD+L8ze/UdePxVKf6ztFOXqPzLZcSvzQ8Xuj8LZ/b/7EPIlCQN/vcp/Y0ImUJPsnr7yLorH+doX7KNnNWTfHlpuK/v3j9QWTqN/mxmnU6RAjc4NLo2Rf00k0zW6+vXPj7JZuXoXZmwYv2fTvj8ycrNb8gWHzu9wkNpnji8b61qe1KZZ7/z27yQ7o4PgOGxleLpFyftxw1rUyb3wR+fyXzZl/rNZgJeqXuSeo77QCUcA8uv71GlraMfk331rme60v/vdrzDJve9hC5XO4N1HXvz9OY5y/5l+YRP0y92xXKPgibx2G97KQ0XxJfR2kAMzEhe+U+dKd2sj9UaW5U9c/uwL133/+QmvALbu+CxPbPbpo1Jp4u4Vzo4qkYv4jVCsX8nFdte5X3D8+3aoMgznUj3O92LwJVTlgLLWR/FPlZSRKDIVagThsjoq1rrJ/f4PWwDf861yf8LzCF3qB2tCKrm1b10jFPWepjb/Vvrec3kTWToOa2a3t3z//gtYA4fqKmDUumA5qQ+ITle1JSi9QYWeWW7FpHsimqij3mXXh9lZdHeYoWZx33kkPVv0Zjf4btAaBw+Bisal191Z7iXkb0jznUEFN1kZNJGgRn96wUFxZfOb9x1z0/x2hAPsXSQtL1PbvP8MkCpHD4GKxqRWNUqey3+uoVK1mrBooa6K60NX+avSnYo3MQtxUrChT3b9/zybNv/78+ft3/q/17sDoXCs29dXmcl09ojKSrKLDKE3by22wNsvVrqiSKfIcdyWdt9E0+SRc9f3753//DYsGCJeKTf1DmqNTogp9nC6bxqPo7DdOUSVaurn+rMlODXMRPliQE35w3pqG0KeW3w34Mi4Vm6b4vLcflqw4vdeVNpcJCXc2l0k2YDRF5q5E9eIO5cP1Z7i+eMf+gR/mSrFpe842G4/kMB2M/itx2racVekp1Jhq+/L2Gwpa2rgAEzK09ukfABeKTasFvdEqmdl8aJpBJk1/SbFEb+s2J5e+9HGBjKHGVY/+AfC6VGxa9/0tn1IybYvTXZCswjbTsfJ1IApr8W4pSOF7H7GKZ3OkD0wbwFwoNs2psKJakXhoGhvsghMcFYuyNI8lOk8Rcz8++bzSzcl3YNoA5jqxafcMuqeUDhLefhb/xa+o2bB55le/izhytSkaC969ntk/8AGuE5sOOT7dlqNH5ggPs4we9RKeuGATrMgOStFBj8E3cJnY9HjC5gnGE5XmlcwyeuRNfvI8o4tQ3JBbGgzAZWLTxXZ+7FOq2Z9Rkalht7XnzjO+vX/gRq4Smz7f1s2JLK8iRPp0GUcPnmd8e//AjTxbbB77lIYsM31mQO1O2Ivo1b+nWqjgTq4SmwybhDL8MU9/SrMG4/kpj3XaZPQv58+IeRR4fVBsyBbIPDVcHjsKhQzTizLyaj12unjaP1Iqo2TyY/sH7uQysTl5/ngInq7lPP0pzdBUNWUI0lOni2f9MzbpWJL45oDH9g/cyUVic2p+68ntJ57OHubRxcb2Mcf68S8eZsqd9c/Nj4w6+zNCbMDrY2JD/GVI04lp8/SnNEMbcsTmJaecD9ubOfszylbUsy4+TUPBR7hMbN6/70egmiA2oR0XljyU2Ijv+7yLEBvwMbHRMqjOvsl/SGyIkzo8SmwyLZLT2TDEBrw+JjZeZM4M8J8RG2Nkt9WIYqNPIxQgNgBi00hGHFCe2IT0McrHpEhlq/QfkrcrfcNs3jg+67AtvXOWSU97T0bNU4gNgNg00s2yCWpjYgnMpHTnooxn1hs7Z+W1tfhHlkhkZBmE2AD4bBrp6LMRuRlvGpVTeQZiAyA2jfRcjSL9OLHJ6V+WIEFswMeXvhFnk7RD1kk8mtjk7Q6D2IDPBfXxRgU6jwbrd09X0EtsJIKY9NPE5nw7hvsNnKSHhtiA1+e2K3Boxuma6a9sVwinPCOpe+Csf8Rlis2JKD39OwPcwlUbMc++EmnWGTKna6bDiw2Rms6rJ+zkw5tV54qUqORKmO8cp/U/TUYxzJiKeezZMLiFz+WzOXjqlzzd/D5PwUAmo9jV9rdlj/SffFhDxFar2La7PGb/Mlzb4iQywQiDG6jgFj6YPCuHx6awEzrpwaYVNnV6GwRiSdJOZg+dblLzV28uvRtaf/h3BrgFpAVt45q0oEbUoFNRXh867L1Hx6GUPHeSq1vN+fK0p+BOrquu0OMpDZ6fh/lNI10suLXLJsT/Z2wEyEDzWDchx5U58rE4mQmpBe3Vu/Tv+d8Z4A4uE5suTyknvTGmvQbsVXQZR1L5k2xXOaeY14JVStH5HJ/y17pLwlHvM/EHrafIH6bZjpEEFv4DLDbcktufwK3OZ1pfdtzDPatUn/499a8HbuW6InUdTOf5G58Ml9V+7OPawYITV+ykXRFxstlSQ+upCUKJd9doIp5kGXs0HORXaWNGTa7sjI7mjHspibq0nGPcT+X2TfjzrOz0KMKHWRSwXFd+t8Mo1FPYC93hhq4gY/X+HLZGjDNAbFQORbFJM8W4ORW/R247trZ/PCcNzvKz0QT+A9wY+2a0xE/GptTEH6LgLOafzkucuI/tzXSwUJ9YXhh8gOvEpt0An4eUF5snPq62HKbWpl0HWZY5eNg6VpIwwOQlu1JYbEQ/jFcjCjaKmCW+Me0+x1OzIIvEOdjZ7nE6LpHcLGTRArKHO3j6sRYFHNeJTfszNn+perV53CyKhcaZA633JqrMBoUzJnbFhv1WxkpO3OWxMII0GzexMWfZyMnJLMpMzoJhs0dUyYTGaNJRbFQH5xvcw4C5UGxarWeKuTJjSqlHYD0nOjhlW70a3LWgCWZfbML7FPfML6ZZ1jXjbyppzJ+i41SUX7rjxEmgF5KzEptm0+ZRfzrwQS4UG2p8yjR/2/Isitzw/rw9bhNKqWVVtsavftHkYFxQskadiI2W96egEHw0EYYYx5s05mtz6fXCtzWCbF/socRls55G9eofABeKTeNjJta3UxveWexmLldsGMq+JRMmT+nRpq9+/+mkkNaug1jJ+2ohNvHVYr+nVtFembyY+Z3lsgSu3BSJHUFTdAetHcTNpg08NkC4UmzaDGj/kJpkmx/7ZDfD/Q78lXcu3SSq8jsSfwnbTMnSN0sMicDY6RuRiA3FCZUJYsL3p2JwnpFEo8FgkZglcitN/C7/tOd7k0c6Jq136B8A14pNizvD7DlJXaMuyO9WwREfzeEsrmFA+ZyaTmxIEownQX0cBaOcS8aG7E32Wuz41X4xieN0rMFCJvp/pDE9yd15M8XvRZiPW/eQce0ZF8ynTbCuuF9en1r6V/1R8G1cKjYNapM+pLspEez4fycAXSBnSp0qW303KdpvysRkvsvtCs5EmdVo/odsJbBuI5kd2Vc8y1TBl5Q2ZoKDyZ0aN4DY5nhxS84xMn8ivyMrbpaoDiZC1iwQuVZsqr/Ych5SP6fKSOFQcQPEDpq8OVvtmIo+9Hm+lPRitRGT4s8woUzudPNq0VjSalxBW9/H4qjXzvjHa+8fAFeLTeW+5fyHNBWFPpoTGyxQsZwKAzukdsayPZ4O1bW6bsy3OdsyJK729w3EFBPxSFv/ALhebOqet9IPieTYeUK9nbNso7CRKhMudnOTjLkleZZRezfjIpaUm0qdtmv0+up1/YPDBiRcLjYVatNgfIteKDZMDC2Rc5a4FLryoYaF9fLRSDqZpkxrAbD7u+vuhHbT1bhfxmzcqKz4yPnaq7MqbBtoDVhwvdhQ6TPXY6IfNGTJ4cEOM7C8UrXJLSbdND2X89831qCmpf2D1oAF14tNWNDNPr3rRH9lwyztnV7XcPbUxjh5/5nh/BllajNe/8DV3CA2cXGl97kPwC7Bc8adSZekmxhxLBb177HpzsDHuEVs8h+98WxvE3LukMtulfUhJ1Gf3HhRR7aNSoN9ZYBbuEdsch/Ts2JnT8RnwXDLzTqrA/Oky25nvzcMugt5f6DCiTP4EW4SGx5g7ac8EF+oTeLvzvtAmrccOIUaTW7y+jdYp8A93CY21rR++xDS+7cfC4nLJsTfvh9rpP0OJJ+pZ7Ben3wlkB5OQMFN3Cc2Lxdttv8g0pkSFV2l/JvV7nmuDQVU870vsyTTYeodinUigq9nPO8GHex+X/QPgDW3io0TgnWMLwfu9vs2pMOqSG8+Ul37UfZer7Ik211bqzBk2QURjnixGc2wcfj+pYdW/QNgzc1ik2w90ia+6PqIbkL/Tz/AdZVqBoqsYOtNlmTZJZp2Uy1GJ4nPpvyaz2D3zwipAW+4XWwsMcKuY2RdwBSmR/chLzXbf4xPJ7hrTC37uVzIoTGnUAukf9en+gBfwUfE5lp04RDepm/JJhQOyNnHtDSd6KEFairoUvwUfD9fKDbByohft35vgmRYWLxPm8R0+ZTNvJamkxp3CrViwOAo8Am+T2woRLwYia/3ZWvJJLl5XV1s+2qTcrfgUoWmyWJUfs8QhVcYZPF9YuOzdFuhkSKSoWKBDkVMWHJcct9VMYECSkfZQpx8ss7x51IQG5DF94mNVJa0WmJYZlhxpNTAS1JDuQTjSqe+3YMMd4eU68TesBzewkGeYZDHN4rNS5aHOGOdlrK2Uu3x5RyaZGukcCLxGI5XKjblg2xv3jX8WB2+A+Amvk5sRE9sLVrNNWVj2VqpcWJ8/QEb37MQm6LfRs0g2/tIZX7fx4Ba3iCPrxMbNmFs4WtedNJJJVouD2klRof366dRVXE5e3OmwZeOv8DrBG7h68RGux6FcDmxVnxa3vm4C1eOZWtTB/FuovDjK1VoxL4VMLZlM7hWgtv4NrGx1slssrDYuJqytoekpQitUjw0RGzC2pSjcOm7bnvD2MKyx/AebnAT3yY2dve4XfO2umG4RrZxZWuNWDQ8Mlw1A1pXm51KlIDKvMnyoW8Um+/rEriEbxMbriprNUbybhq329HI7mq/LTm+L8E4r+KUpHV+0e8bmd+on+ASvk1skr0IiwP+6Oa8V6w2W7Zboc5V8X0ODixGgUy+Tmwq8NVmy3Sgs9gMm94Oi1EgE4jNSxSg1M/ZW2xGnY18n60GLgJiY5kHTLFl0XsaNaqFMKpIgtuB2NTS3Wcz6BJyzaIc+EkgNrV0F5sxl3XgHwa5QGxq6b/0PWRqTbhsQC4Qm1qqxGZM6+Udg6dRBjcCsakGEcQvzKJAARCbaur2RvW/j48y6hoa+AAQm2pqvBVfNzYHXUIDnwBiU023fDYpOTVhnsS3TQvBhUBsqqnwv2R8ZCxT4et8UOBCIDb1lM+jMoyhd8PX5ue5YHC7qp077a6uNf9zc9bXTQvBhUBs6ikfaTnrxMdqY8WtvylBWspqbd5ZHnPZgdZXH8sOA58FYtNAU92oQ440zEjFvb5q4wv57VQrXyQT81vjF2dhFgUKgNg0ULiQnTs09/eE+nQ7nbaHi0nikzPHF/u3E6++eAuzKJAPxKaFsllEU2Q/+dLg1KVGuOaQRBMK2ZjpYI5nkpLF66tjFgUKgNi0UDSNKJ9zkM2STEbSm/pPr9wr8zkktpD19Iaj3j7yB+ezjD9MmtOkkgoJmFlsuCWyrmFudT7Tpk9NEjWngdPYqwAKgNg0UTKnKTcDrCYYrZ07Jda0WhSBoMS7O9+M5FF2R8NBfpU2ZlxdLTt3CnLhXhoWHy3nGPdTzX3cL0GBWRQoAWLTRv54q5lycJ52605JCuhR4l0hrmbuKg7bZO7kymY5p69TBbIqIfoQG/PWEU1ROZTTHc1zJsVlb1ylmykekVZilzZr45ezvQSMq2GA2LSRm7m4NMNxWs7TOlaSMb4oGKxfXmykprnxxfbcLMgeJDFLfGPafY6nZsEDM0+o7IfY7nEXEE1jIYsWUCJ1q2I2tp5xUR+5kYMgn5V0cWS1WZ+cfnq28LQruTxkqo5fAGLTSJ6KlGqNOHjYoLD6kIpNNHK0EwsnLlEESC/MkPBPb6nEk5NZlJmcBePe9KpkwsVo0lFs4nxu0afZsNLFG+FngbByobazUVqUJyW/JEaUnmv/EfqnJ8slsUigCxCbZnJ0pKwklcWkmmD2xSa8T95uSY5arGtGe+9xbMxPrFQUDu1e8tSLy4UuJGdPbJZj2hbEKd7Y5YXCbNfd08miXIpDglKnkZJZH59jiKRuD9TmkUBs2tFnz3axXeNaNdG4oGSNOhnuWt6fgkJYTCI7Kk46ksZ8ffMYWyML3zLrcu0nLpv9adTSXVVWJ13a8q6g5O7Xp7Aqmle8l43/iH8N6e+4sAQYuAeITQdOnBVVvgw7enh0ibmx4yBW8r5aDFedLGcnCqBVtFfkeFAwvwRuL2LE5TNFd9C+g3jRq5roH4p3qqb9j/Pqmiynya8gfkp7z7f7BegorFQjfeBqIDY9oDfGzbv33jdq2F+ioqPWwSYK1zG37lyt7PyBxYYoWDYmiAnPLVQMzpvPoIXBomXPgnUOGX6Xf9rzvcmTXv21nKuQ1Y3ol/VOW7J2yXEMUHQZsXuayITb5dd2iZ78b8BLY7DHvMCK6TdN0Z2zt9ULfBqITRdoz8fp3tD1Ubbs+BWtWgX1OSGyQ9GKg70EO351WKc2RgwWMkFIfGN6kptiMyW4WG1LbvLm2jMumE+bYF3Fq7uTE+NhFrwpaKrxQT5zu9ZpzE7uEAPEnmRaRBQ6sZH5m/MA82uyzZpXXLqXuwz2mIpiY6ONprC6Zg4sJfBJIDa9MNaOXy7X2sXYhoferkzHqMHldgUWIqXmf8gX/zw8ZTQb+8oPQy+CaWNRGd2pOo55FVbO+Rzjx7PW6dXd/Szdw8kKWXDakhUvDv9hAXmJbeXO0VPQTw748WZX/MlLT7IhVB+LjUgLqSk4gVDO6nlAbPpBLs7DrYnYvQFGN0mNG2SJeoWtkDLCXuFnGLLxTmjzatFY0mrwdKwNM1ocpfVGzNWOzMTVHJzWL+MtqBgDxFaIU5VkLYwX3vmjEsTsV8FeBWKTyg7E5nlAbHriNcbKzNrOKW9sNWCaUkwcjL7ZcpHbPFu2XqeYWDpFoifHe5TtgyU7sNJlbCsiPJmTMEJuLIoK+5E4EnqxFH8yjfL3oV/x+uBZ4G/SH6IuMazsZUkOtCTPMrvrMy4OTrmp1Gm7RqdXX23TCKlvZIGIl+e9naFT54ydWrJ3OlmijwtuHPBDyfJ7FBu/Uz1M6TZi45ehIDZPBH+Tp8I7sxcTMbOTmDO/se1RN+WbjZtZbTLme7PtE85aJ9FaB8zodLl+YXmEyB+aksV6cdBYEROXjbtUErS4t/StkqVvfyNebDCNeh4Qm6fCFkCnYFhvTuxTfomVYUOJsSH/o3ROk+wtj3oVPC0SUWjc0plE6EksYRK0562VhXSZ5H/8Jnw2zwVi83CeGXq/soRo5bLxAYRhacjHAPkwPPdjpUX2dGP/QW7+xGcngUNx68RLXEx+Hc75eviUsPaGpe/nAbF5Ok9MGrPOh2oS04XWEb9pDJAzYsivy8v2AxGIWVo02dV3evHPF/+M8cAqZsGQnVucYcOwpztqTRKVBJ4DxObxNGUTvYa1iyfx0NrFfz+VCWfp4BUyMfLHRe4lnmkjWuKmUfLTBw5597M2cr7EPNtN465lbit4nMs3voLrgdiAYjbGVrrUtb8SRzuvXDBxEuVDm/ODvRRUJLQe/k+bt7AR86FAbEApGzcS1Y1tl6hUfCzvGyh1XCER+yOB2IBSloaNXZ+vmrSQClE+p1vGL84sD24BYlPO5lHemzlIWO4q5SUts1iaxXaDQVgnzdKF5bM8hndPJk6cdxctsFUqY5HA1UBsitmkL9jJnuLTWNr9z4ukTobkbLslWvYN5niAHzR+Vrd7kEI4G2QM/hkgNsXsiM06gmyRxlIlIWc6HNCckEbWVM6u+aCZwYNuBYwFxKaY7Vfx5ohO01jG/L0+jaeNNVnsUDx3aD4n2gbOV1AJxOYCuMqAzxUcEnYuNg7xkRBEe2otPCVy5DmqB0YDYlNKiOcIufz9/8IPn8ZSzJawB0itti3HeJCMnLnPsCgwiQLVQGzKII6Lf0ndW3pJqmCXAtOGsZqwMUcHsREliTkSxMeTRPmfmzaVaz6deYbkgSGB2JSiott3mcdS0Sw/k9lkljsSG5dhN+zlOR/ETzApYNiAeiA2paTZE+S1Ux8XDevSJKxcM2HWpIPYcBo6o0PO3J0qbU8EWgMagNgUwvnzZOchbx30BSSNVHlTeZbNy5UqWQnSs3ngnlAwDhCbQgyXr+XAvCmUl5SQGVeGZJUz943YbK2fR/MMtxEYFYhNIc6OCfkoQ0FuVhgxe9Zis8wstajbPZLYYBIFmoDYlMGCkc6igsvm5V+vcubGZC9hfhUGLU1lmeU+Oo/BShRoAmJThpQ8UnE7gpYMlvTy2Sy9cqSJdMln2V3ubjAhS12e0UAfHPAI5wNtQGzKENuF3TRu4CtlTCw9YsKKuP+/rxApYuRXzd2O7zAxUbkZYT43lcEkCjQCsSlD+7y5oZatC5aRfQfiy9Ghipo2WvLx8uds0kyO05kmlVQ8OE3oEviYfQGtAY1AbIoIU6DdWrYhm2XQjk25OtpPY1mgIB+aSMFhA1qB2BRBeY5cU2YGlKXV/IiFAYcNaAZik48x2Zm0ixJKDeANGeAWweOB2GRjE2Bm+1YK1qjp+WksoTWgAxCbfIz+1TEHhw3oAMRmSO4VPWgN6AHEZkhuNbGw/RJ0AWIzJIXLXcNcC3wzEJsxuW8pGloDOgGxGZS7/ChYiAK9gNgMyk0iAK0B3YDYjAq0BgwGxAYcA60BHYHYfBtEZBybTaDlTUFrQEcgNt/ELDPa4sSGXzUoDrQGdAVi8z0Yray4pEksyB6rlIxPZgUE3wjEZmSScgd0qCrzOzVbPWHXgM5AbIbGGx/znOmNGTLbN8Vyg1g+0BuIzdCw+UFvpcadV7pjHVoDugOxGRu7bcHkZNmhrLNis9Aa0BuIzeDYRae8MynfuMltEoACIDaDU2KwZNorWIYClwCxGZuy+Y7JkRFoDbgGiM3QlPpWMoQE7hpwERCbkSnPanOqNqjZAq4CYjMwNcLwXm0whQLXAbEZl7oJz7vI4CyfDgB1QGyGpXY/wfHnfrZUDbgFiM2o1O9dOph9YQoFrgViMyoN0pB8NAgWYRUKXAzEZlCaVo2CrpCvXU7lWzUBKANiMyZtCSBCago98St4a8D1QGzGpNG/IkUuzTRNhEUocA8QmyFpzWwlqSnULDa6YIMmAA1AbIak2RRxpo2eJqc2Pe4IgDMgNiMS/Lr1Lbg8OCw2XW4JgDMgNiPSwceiDbHWTM3CBUAWEJsRUe1NkOJJFEwbcBcQmwHpsjNbea2BaQPuAWIzIF1cuka7knZKwbQB9wCxGQ/qIg5pzake7QFwAsRmPDLEJqfON5a8wb1AbMbDnK1F0Tw5Os+DDrEB9wKxGY/TinRaGz1NZ2pzqlkAdAViMx5nJonbv22ms/VxiA24F4jNcJztixJ3zanY9PEzA5ALxGY48jZh0umCdutmTgDKgNgMR55InAf+QRrtoUEAAAIiSURBVGzAvUBshiNn+kMZVXkhNuBeIDbDkRNmozPigiE24F4gNsORFdNn9HRm20BswL1AbIYjcxVJn5k2EBtwLxCb4cgUidPlKIgNuBeIzXBAbMCYQGyGI1dszn02Pe4GgFwgNsORKTangTZdUnABkA3EZjzOtitMylBGNV3sjQL3ArEZjxOVsAkmdIaSQGzAvUBsxuM8n01G6izkswF3A7EZj+5pQQG4A4jNgHQphwD/MLgZiM2AdKhR16kRAPKB2AxIlxlQh0J3AJQAsRmRDvMozKLA3UBsRqSDUmAtCtwNxGZE2rc1wbABtwOxGZLmgDwYNuB2IDZD0mrawLAB9wOxGZM2tUB2CfABIDaD0iQXMGzAB4DYDEqLcQLDBnwCiM2o1Fsn0BrwESA2w1K93wAbFcBHgNgMC1WKBhw24DNAbMalbjp0nsIPgEuA2AwMVeyRgtaATwGxGZnTCgobMIcCHwNiMzSlfhvYNeBzQGzGpkhtSENrwOeA2AxOgYCUT7oA6AjEZnhMnnGTUUkKgCuB2IxPlnFjMIUCHwZi8w3MSvLeuoHUgM8DsfkK6K3cGAWpAZ8HYvMtkFbabEph2qLfkBrwCCA234M1b7SxkMW90mcTLADuAmLzVbDEaMapzqfvCAAPxOYbcZbNp28CgCUQGwDALUBsAAC3ALEBANwCxAYAcAsQGwDALUBsAAC3ALEBANwCxAYAcAsQGwDALfw/wFvueghXfKMAAAAASUVORK5CYII=;" vertex="1" parent="1">
          <mxGeometry x="-686.07" y="-1080" width="702.14" height="540.25" as="geometry" />
        </mxCell>
        <mxCell id="HfbvIJwxYoeoFV3w_FML-34" value="&lt;font style=&quot;font-size: 14px&quot;&gt;selectComponent(): v5&lt;/font&gt;" style="text;html=1;align=center;verticalAlign=middle;resizable=0;points=[];autosize=1;" parent="1" vertex="1">
          <mxGeometry x="-780" y="-710" width="160" height="20" as="geometry" />
        </mxCell>
        <mxCell id="HfbvIJwxYoeoFV3w_FML-33" value="" style="endArrow=open;endFill=1;endSize=12;html=1;strokeWidth=3;" parent="1" edge="1">
          <mxGeometry width="160" relative="1" as="geometry">
            <mxPoint x="-640" y="-680" as="sourcePoint" />
            <mxPoint x="-790" y="-680" as="targetPoint" />
          </mxGeometry>
        </mxCell>
        <mxCell id="HfbvIJwxYoeoFV3w_FML-38" value="" style="endArrow=open;endFill=1;endSize=12;html=1;strokeWidth=3;opacity=20;" parent="1" edge="1">
          <mxGeometry width="160" relative="1" as="geometry">
            <mxPoint x="-790" y="-650" as="sourcePoint" />
            <mxPoint x="-640" y="-650" as="targetPoint" />
          </mxGeometry>
        </mxCell>
        <mxCell id="HfbvIJwxYoeoFV3w_FML-46" value="" style="endArrow=open;endFill=1;endSize=12;html=1;strokeWidth=3;opacity=20;" parent="1" edge="1">
          <mxGeometry width="160" relative="1" as="geometry">
            <mxPoint x="1.1200000000000045" y="-980" as="sourcePoint" />
            <mxPoint x="121" y="-980" as="targetPoint" />
          </mxGeometry>
        </mxCell>
        <mxCell id="HfbvIJwxYoeoFV3w_FML-45" value="" style="endArrow=open;endFill=1;endSize=12;html=1;strokeWidth=3;exitX=0.985;exitY=0.175;exitDx=0;exitDy=0;exitPerimeter=0;" parent="1" edge="1">
          <mxGeometry width="160" relative="1" as="geometry">
            <mxPoint x="116.54999999999995" y="-1009" as="sourcePoint" />
            <mxPoint x="1.1200000000000045" y="-1010" as="targetPoint" />
          </mxGeometry>
        </mxCell>
      </root>
    </mxGraphModel>
  </diagram>
</mxfile>
